<svg width="48" height="48" viewBox="0 0 48 48" fill="none" xmlns="http://www.w3.org/2000/svg">
<path d="M15.75 24C17.938 24 20.0365 23.1308 21.5836 21.5836C23.1308 20.0365 24 17.938 24 15.75C24 13.562 23.1308 11.4635 21.5836 9.91637C20.0365 8.36919 17.938 7.5 15.75 7.5C13.562 7.5 11.4635 8.36919 9.91637 9.91637C8.36919 11.4635 7.5 13.562 7.5 15.75C7.5 17.938 8.36919 20.0365 9.91637 21.5836C11.4635 23.1308 13.562 24 15.75 24ZM34.5 24C36.0913 24 37.6174 23.3679 38.7426 22.2426C39.8679 21.1174 40.5 19.5913 40.5 18C40.5 16.4087 39.8679 14.8826 38.7426 13.7574C37.6174 12.6321 36.0913 12 34.5 12C32.9087 12 31.3826 12.6321 30.2574 13.7574C29.1321 14.8826 28.5 16.4087 28.5 18C28.5 19.5913 29.1321 21.1174 30.2574 22.2426C31.3826 23.3679 32.9087 24 34.5 24ZM7.5 27C6.30653 27 5.16193 27.4741 4.31802 28.318C3.47411 29.1619 3 30.3065 3 31.5V31.725C3 31.725 3 40.5 15.75 40.5C28.5 40.5 28.5 31.725 28.5 31.725V31.5C28.5 30.3065 28.0259 29.1619 27.182 28.318C26.3381 27.4741 25.1935 27 24 27H7.5ZM34.5 37.5C32.316 37.5 30.588 37.203 29.2185 36.7305C29.8665 35.6805 30.2385 34.668 30.4485 33.8505C30.6016 33.263 30.6985 32.6623 30.738 32.0565C30.741 31.9965 30.744 31.9425 30.744 31.896L30.7455 31.833V31.5C30.7481 29.8394 30.1364 28.2366 29.028 27H41.3895C41.8636 26.9998 42.333 27.093 42.7711 27.2743C43.2091 27.4556 43.6071 27.7214 43.9424 28.0565C44.2777 28.3917 44.5437 28.7896 44.7251 29.2276C44.9066 29.6655 45 30.1349 45 30.609C45 30.609 45 37.5 34.5 37.5Z" fill="#8726B9"/>
</svg>
