<svg width="60" height="60" viewBox="0 0 60 60" fill="none" xmlns="http://www.w3.org/2000/svg">
<path d="M48.5614 11.4539C46.1282 8.99664 43.2335 7.04437 40.0436 5.70924C36.8537 4.37411 33.4314 3.68242 29.9733 3.67391C26.5152 3.6654 23.0896 4.34023 19.8931 5.65965C16.6966 6.97906 13.7924 8.91705 11.3471 11.3623C8.90191 13.8075 6.96392 16.7118 5.64451 19.9082C4.3251 23.1047 3.65026 26.5304 3.65877 29.9884C3.66728 33.4465 4.35897 36.8688 5.69411 40.0587C7.02924 43.2487 8.9815 46.1434 11.4387 48.5765C13.8719 51.0338 16.7666 52.986 19.9565 54.3212C23.1465 55.6563 26.5688 56.348 30.0268 56.3565C33.4849 56.365 36.9106 55.6902 40.107 54.3708C43.3035 53.0513 46.2078 51.1133 48.653 48.6681C51.0982 46.2229 53.0362 43.3186 54.3556 40.1222C55.675 36.9257 56.3499 33.5 56.3414 30.042C56.3328 26.5839 55.6412 23.1616 54.306 19.9717C52.9709 16.7817 51.0186 13.887 48.5614 11.4539ZM7.50006 30.0152C7.49922 28.0238 7.76325 26.0412 8.28522 24.1195C9.14537 25.9711 10.3946 27.5707 11.2442 29.4703C12.3422 31.9125 15.2907 31.2351 16.5926 33.375C17.7481 35.2746 16.5141 37.6769 17.379 39.6644C18.0071 41.107 19.4883 41.4222 20.5102 42.4769C21.5544 43.541 21.5321 44.9988 21.6915 46.3863C21.8713 48.0165 22.163 49.6324 22.5645 51.2226C22.5645 51.2343 22.5645 51.2472 22.5739 51.259C13.8047 48.1793 7.50006 39.8203 7.50006 30.0152ZM30.0001 52.5152C28.7435 52.5148 27.4892 52.4098 26.2501 52.2011C26.263 51.8836 26.2688 51.5871 26.3005 51.3808C26.5852 49.5175 27.518 47.6953 28.7766 46.3007C30.02 44.925 31.7239 43.9945 32.7739 42.4336C33.8028 40.9101 34.111 38.8593 33.6868 37.0793C33.0622 34.4496 29.4891 33.5718 27.5626 32.1457C26.4551 31.3254 25.4696 30.0574 24.0153 29.9543C23.345 29.9074 22.7837 30.0515 22.1192 29.8804C21.5098 29.7222 21.0317 29.3941 20.3825 29.4797C19.1696 29.639 18.4044 30.9351 17.1012 30.7593C15.8649 30.5941 14.5911 29.1468 14.3098 27.9691C13.9489 26.455 15.1465 25.964 16.4297 25.8293C16.9653 25.773 17.5665 25.7121 18.0809 25.9089C18.7583 26.1597 19.0782 26.823 19.6864 27.1582C20.8266 27.7839 21.0575 26.7843 20.8829 25.7718C20.6215 24.2554 20.3169 23.6379 21.6692 22.5937C22.6067 21.8742 23.4083 21.3539 23.2583 20.0613C23.1692 19.3019 22.7532 18.9586 23.1411 18.2027C23.4352 17.6273 24.2426 17.1082 24.7688 16.7648C26.127 15.8789 30.5872 15.9445 28.7649 13.4648C28.2294 12.7371 27.2415 11.4363 26.304 11.2582C25.1321 11.0367 24.6118 12.3445 23.795 12.9211C22.9512 13.5175 21.3083 14.1949 20.4633 13.2726C19.3266 12.0316 21.2169 11.625 21.6352 10.7578C21.8286 10.3535 21.6352 9.79215 21.3094 9.26363C21.7321 9.08551 22.1618 8.92028 22.5985 8.76793C22.8722 8.97008 23.1969 9.09183 23.536 9.11949C24.32 9.17106 25.0594 8.74684 25.7438 9.28121C26.5032 9.86715 27.0505 10.6078 28.0583 10.7906C29.0333 10.9675 30.0657 10.3992 30.3071 9.40074C30.4536 8.79371 30.3071 8.1527 30.1665 7.52574C34.5493 7.55096 38.8281 8.86354 42.4712 11.3004C42.2368 11.2113 41.9567 11.2218 41.611 11.3824C40.8997 11.7129 39.8919 12.5543 39.8087 13.3886C39.7137 14.3355 41.1106 14.4691 41.7739 14.4691C42.77 14.4691 43.779 14.0238 43.4579 12.873C43.3184 12.3738 43.1286 11.8547 42.8227 11.5406C43.558 12.0508 44.2623 12.6041 44.9321 13.1976C44.9216 13.2082 44.911 13.2175 44.9005 13.2293C44.2255 13.9324 43.4415 14.489 42.9798 15.3445C42.654 15.9468 42.2872 16.2328 41.6274 16.3886C41.2641 16.4742 40.8493 16.5058 40.5446 16.7496C39.6962 17.4175 40.179 19.023 40.9829 19.5047C41.9989 20.1129 43.5059 19.8269 44.2723 18.9586C44.8712 18.2789 45.2239 17.0988 46.3008 17.1C46.775 17.099 47.2305 17.2846 47.5688 17.6168C48.0141 18.0785 47.9262 18.5097 48.0212 19.0863C48.1887 20.1105 49.0923 19.555 49.6419 19.0382C50.0425 19.7512 50.404 20.4855 50.7247 21.2379C50.12 22.1086 49.6395 23.0578 48.1852 22.0429C47.3145 21.4347 46.779 20.5523 45.6856 20.2781C44.7305 20.0437 43.752 20.2875 42.8087 20.4504C41.7364 20.6367 40.4649 20.7187 39.6516 21.5308C38.8653 22.3136 38.4493 23.3613 37.6126 24.1476C35.9942 25.6711 35.311 27.3339 36.3587 29.4879C37.3665 31.5586 39.4747 32.6824 41.7493 32.5347C43.9841 32.3859 46.3055 31.0898 46.2411 34.3371C46.2176 35.4867 46.4579 36.2824 46.8106 37.35C47.1376 38.3343 47.1153 39.2882 47.1903 40.3043C47.2616 41.494 47.4476 42.6741 47.7458 43.8281C45.6453 46.5325 42.9545 48.7211 39.8789 50.2267C36.8034 51.7323 33.4244 52.5151 30.0001 52.5152Z" fill="#F1F0F7"/>
</svg>
