<svg width="60" height="60" viewBox="0 0 60 60" fill="none" xmlns="http://www.w3.org/2000/svg">
<path d="M29.7001 36.272H29.8313C32.6438 36.347 34.8938 38.6345 34.8938 41.447C34.8938 43.847 33.2626 45.8533 31.0501 46.4533V48.5533C31.0501 49.3033 30.4501 49.9033 29.7001 49.9033C28.9501 49.9033 28.3501 49.3033 28.3501 48.5533V46.4533C27.2484 46.157 26.2749 45.5062 25.5801 44.6013C24.8854 43.6964 24.508 42.5879 24.5063 41.447C24.5063 40.697 25.1063 40.097 25.8563 40.097C26.6063 40.097 27.2063 40.697 27.2063 41.447C27.2063 42.8345 28.3126 43.9408 29.6813 43.9408C31.0501 43.9408 32.1751 42.8158 32.1751 41.447C32.1751 40.0783 31.0501 38.9533 29.6813 38.9533H29.5501C28.2013 38.9167 26.9198 38.3556 25.978 37.3893C25.0362 36.423 24.5083 35.1276 24.5063 33.7783C24.5063 31.3783 26.1376 29.372 28.3501 28.772V26.672C28.3501 25.922 28.9501 25.322 29.7001 25.322C30.4501 25.322 31.0501 25.922 31.0501 26.672V28.772C33.2626 29.372 34.8938 31.3783 34.8938 33.7783C34.8938 34.5283 34.2938 35.1283 33.5438 35.1283C32.7938 35.1283 32.1938 34.5283 32.1938 33.7783C32.1938 32.4095 31.0688 31.2845 29.7001 31.2845C28.3313 31.2845 27.2063 32.4095 27.2063 33.7783C27.2063 35.147 28.3313 36.272 29.7001 36.272Z" fill="#F1F0F7"/>
<path d="M19.7475 9.5626L24.9713 15.6751L24.4069 16.3051C13.6556 18.7164 5.625 28.3182 5.625 39.797C5.625 49.8882 13.815 58.0782 23.9063 58.0782H35.475C45.5663 58.0782 53.7563 49.8901 53.7563 39.7989C53.775 28.3182 45.7444 18.7164 34.9931 16.3051C35.0368 15.9089 34.9652 15.5085 34.7869 15.152L39.2306 10.0651L39.5175 9.6226C39.8525 8.89197 39.9382 8.07152 39.7614 7.28744C39.5846 6.50335 39.1551 5.79905 38.539 5.28286C37.9229 4.76667 37.1543 4.46717 36.3514 4.43042C35.5484 4.39368 34.7557 4.62172 34.095 5.07948L32.5144 3.20448C32.1598 2.80769 31.7256 2.49007 31.2401 2.27232C30.7546 2.05457 30.2286 1.94156 29.6965 1.94068C29.1643 1.93979 28.638 2.05105 28.1518 2.26719C27.6655 2.48333 27.2303 2.7995 26.8744 3.1951L25.2188 5.04385C24.5598 4.57657 23.7652 4.33944 22.9579 4.36913C22.1506 4.39883 21.3756 4.69369 20.7528 5.20812C20.1299 5.72254 19.6939 6.42787 19.5122 7.215C19.3305 8.00213 19.4132 8.8272 19.7475 9.5626ZM26.8706 12.1595L23.6906 8.48448C24.4294 8.84046 25.2653 8.94155 26.0677 8.77192C26.87 8.60229 27.5935 8.17152 28.125 7.54698L29.625 5.60073L31.29 7.57323C31.8091 8.17694 32.5094 8.59674 33.2866 8.77008C34.0637 8.94341 34.876 8.86099 35.6025 8.5351L32.4375 12.1595H26.8706ZM9.375 39.797C9.375 28.5695 18.4725 19.472 29.7 19.472C40.9275 19.472 50.025 28.5695 50.0063 39.7932V39.797C50.0048 43.6504 48.4733 47.3457 45.7485 50.0705C43.0237 52.7953 39.3285 54.3267 35.475 54.3282H23.9063C20.0528 54.3267 16.3576 52.7953 13.6328 50.0705C10.9079 47.3457 9.37649 43.6504 9.375 39.797Z" fill="#F1F0F7"/>
</svg>
