<svg width="20" height="21" viewBox="0 0 20 21" fill="none" xmlns="http://www.w3.org/2000/svg">
<path d="M9.99935 18.9328C14.6018 18.9328 18.3327 15.2019 18.3327 10.5994C18.3327 5.99695 14.6018 2.26611 9.99935 2.26611C5.39685 2.26611 1.66602 5.99695 1.66602 10.5994C1.66602 15.2019 5.39685 18.9328 9.99935 18.9328Z" stroke="#FCFCFD" stroke-linecap="round" stroke-linejoin="round"/>
<path d="M9.99935 10.1828C10.5519 10.1828 11.0818 9.96329 11.4725 9.57259C11.8632 9.18188 12.0827 8.65198 12.0827 8.09945C12.0827 7.54691 11.8632 7.01701 11.4725 6.62631C11.0818 6.23561 10.5519 6.01611 9.99935 6.01611C9.44681 6.01611 8.91691 6.23561 8.52621 6.62631C8.13551 7.01701 7.91602 7.54691 7.91602 8.09945C7.91602 8.65198 8.13551 9.18188 8.52621 9.57259C8.91691 9.96329 9.44681 10.1828 9.99935 10.1828Z" stroke="#FCFCFD" stroke-linejoin="round"/>
<path d="M4.17578 16.571C4.31911 14.3997 6.12578 12.6826 8.33328 12.6826H11.6666C13.8712 12.6826 15.6762 14.3951 15.8237 16.5622" stroke="#FCFCFD" stroke-linecap="round" stroke-linejoin="round"/>
</svg>
