<svg width="7" height="11" viewBox="0 0 7 11" fill="none" xmlns="http://www.w3.org/2000/svg">
<path fill-rule="evenodd" clip-rule="evenodd" d="M1.00785 5.99215C0.855553 5.83982 0.77 5.63323 0.77 5.41782C0.77 5.20241 0.855553 4.99583 1.00785 4.84349L5.60333 0.248002C5.67827 0.170414 5.76791 0.108527 5.86702 0.0659524C5.96613 0.0233778 6.07272 0.000967938 6.18059 3.06357e-05C6.28845 -0.000906667 6.39542 0.0196475 6.49526 0.0604934C6.59509 0.101339 6.68579 0.161659 6.76207 0.237933C6.83834 0.314207 6.89866 0.404908 6.93951 0.504743C6.98035 0.604578 7.00091 0.711549 6.99997 0.819413C6.99903 0.927276 6.97662 1.03387 6.93405 1.13298C6.89147 1.23209 6.82959 1.32173 6.752 1.39667L2.73085 5.41782L6.752 9.43897C6.89997 9.59218 6.98186 9.79739 6.98 10.0104C6.97815 10.2234 6.89272 10.4271 6.7421 10.5777C6.59149 10.7284 6.38774 10.8138 6.17474 10.8156C5.96174 10.8175 5.75654 10.7356 5.60333 10.5876L1.00785 5.99215Z" fill="#FCFCFD"/>
</svg>
