<svg width="20" height="20" viewBox="0 0 20 20" fill="none" xmlns="http://www.w3.org/2000/svg">
<path d="M3.23958 4H17.7604C18.4447 4 19 4.5376 19 5.2V14.8C19 15.1183 18.8694 15.4235 18.6369 15.6485C18.4045 15.8736 18.0892 16 17.7604 16H3.23958C2.91083 16 2.59553 15.8736 2.36307 15.6485C2.1306 15.4235 2 15.1183 2 14.8V5.2C2 4.5376 2.55533 4 3.23958 4ZM3.0625 7.02537V14.8C3.0625 14.8946 3.14183 14.9714 3.23958 14.9714H17.7604C17.8074 14.9714 17.8524 14.9534 17.8856 14.9212C17.9188 14.8891 17.9375 14.8455 17.9375 14.8V7.02537L11.1942 11.4366C10.7748 11.7109 10.2252 11.7109 9.80583 11.4366L3.0625 7.02537ZM3.0625 5.2V5.78423L10.4008 10.5842C10.4301 10.6034 10.4647 10.6136 10.5 10.6136C10.5353 10.6136 10.5699 10.6034 10.5992 10.5842L17.9375 5.78423V5.2C17.9375 5.15453 17.9188 5.11093 17.8856 5.07878C17.8524 5.04663 17.8074 5.02857 17.7604 5.02857H3.23958C3.19262 5.02857 3.14758 5.04663 3.11437 5.07878C3.08116 5.11093 3.0625 5.15453 3.0625 5.2Z" fill="#321841"/>
</svg>
