<svg width="20" height="20" viewBox="0 0 20 20" fill="none" xmlns="http://www.w3.org/2000/svg">
<path d="M16.8505 15.0691L17.2913 15.5124L16.8497 15.0691H16.8505ZM6.34551 13.2724L6.78551 12.8291L6.34468 13.2724H6.34551ZM2.90718 4.44572L2.46718 4.00322L2.90801 4.44655L2.90718 4.44572ZM12.8555 12.5757L13.2363 12.1982L12.3538 11.3116L11.9755 11.6891L12.8555 12.5757ZM14.5105 12.0399L16.103 12.9057L16.6988 11.8074L15.1072 10.9424L14.5105 12.0399ZM16.4088 14.6257L15.2255 15.8032L16.1063 16.6891L17.2897 15.5124L16.4088 14.6257ZM14.5038 16.1816C13.2955 16.2949 10.1705 16.1941 6.78551 12.8291L5.90384 13.7149C9.59718 17.3874 13.113 17.5674 14.6205 17.4266L14.503 16.1816H14.5038ZM6.78551 12.8291C3.55968 9.62072 3.02468 6.92322 2.95801 5.75239L1.70968 5.82322C1.79301 7.29655 2.45551 10.2866 5.90384 13.7149L6.78551 12.8291ZM7.93134 7.67905L8.17051 7.44072L7.29051 6.55489L7.05134 6.79239L7.93218 7.67822L7.93134 7.67905ZM8.36051 4.41155L7.31051 3.00822L6.30968 3.75822L7.35968 5.16072L8.36051 4.41155ZM3.77634 2.70239L2.46801 4.00239L3.34968 4.88905L4.65718 3.58905L3.77634 2.70239ZM7.49134 7.23572C7.04968 6.79239 7.04968 6.79239 7.04968 6.79405H7.04801L7.04551 6.79739C7.00616 6.83754 6.97073 6.88135 6.93968 6.92822C6.89468 6.99489 6.84551 7.08239 6.80384 7.19322C6.70237 7.47932 6.67709 7.7869 6.73051 8.08572C6.84218 8.80655 7.33884 9.75905 8.61051 11.0241L9.49218 10.1374C8.30134 8.95405 8.01801 8.23405 7.96551 7.89405C7.94051 7.73239 7.96634 7.65239 7.97384 7.63405C7.97801 7.62239 7.97968 7.62155 7.97384 7.62905C7.96649 7.64061 7.95813 7.65148 7.94884 7.66155L7.94051 7.66989C7.93781 7.67248 7.93504 7.67498 7.93218 7.67739L7.49051 7.23572H7.49134ZM8.61051 11.0241C9.88301 12.2891 10.8405 12.7824 11.5622 12.8924C11.9313 12.9491 12.2288 12.9041 12.4547 12.8199C12.581 12.7731 12.6991 12.7068 12.8047 12.6232C12.819 12.6112 12.8329 12.5987 12.8463 12.5857L12.8522 12.5807L12.8547 12.5782L12.8555 12.5766C12.8555 12.5766 12.8563 12.5757 12.4155 12.1324C11.9738 11.6891 11.9763 11.6882 11.9763 11.6882L11.978 11.6866L11.9797 11.6849L11.9847 11.6807L11.993 11.6724C12.003 11.6634 12.0136 11.655 12.0247 11.6474C12.033 11.6416 12.0305 11.6441 12.0188 11.6491C11.998 11.6566 11.9163 11.6824 11.7522 11.6574C11.4072 11.6041 10.6822 11.3207 9.49218 10.1374L8.61051 11.0241ZM7.31051 3.00739C6.46051 1.87405 4.79051 1.69405 3.77634 2.70239L4.65718 3.58905C5.10051 3.14822 5.88718 3.19405 6.30968 3.75822L7.30968 3.00739H7.31051ZM2.95884 5.75322C2.94218 5.46489 3.07468 5.16322 3.34968 4.88989L2.46718 4.00322C2.01968 4.44822 1.66718 5.07822 1.70968 5.82322L2.95884 5.75322ZM15.2255 15.8032C14.9972 16.0316 14.7505 16.1599 14.5047 16.1824L14.6205 17.4266C15.233 17.3691 15.7338 17.0607 16.1072 16.6899L15.2255 15.8032ZM8.17051 7.44072C8.99134 6.62489 9.05218 5.33572 8.36134 4.41239L7.36051 5.16155C7.69634 5.61072 7.64634 6.19989 7.28968 6.55572L8.17051 7.44072ZM16.1038 12.9066C16.7847 13.2766 16.8905 14.1482 16.4097 14.6266L17.2913 15.5124C18.408 14.4016 18.0638 12.5491 16.6997 11.8082L16.1038 12.9066ZM13.2363 12.1991C13.5563 11.8807 14.0713 11.8024 14.5113 12.0407L15.108 10.9432C14.2047 10.4516 13.0847 10.5874 12.3547 11.3124L13.2363 12.1991Z" fill="#321841"/>
</svg>
