<svg width="21" height="38" viewBox="0 0 21 38" fill="none" xmlns="http://www.w3.org/2000/svg">
<path d="M8.47754 16.1537C8.47754 16.6253 8.09526 17.0076 7.62369 17.0076C7.15213 17.0076 6.76985 16.6253 6.76985 16.1537L6.76985 1.35372C6.76985 0.882154 7.15213 0.499876 7.62369 0.499876C8.09526 0.499876 8.47754 0.882154 8.47754 1.35372L8.47754 16.1537Z" fill="#D586FD"/>
<path fill-rule="evenodd" clip-rule="evenodd" d="M7.05446 1.35372L7.05446 16.1537C7.05446 16.4681 7.30932 16.723 7.62369 16.723C7.93807 16.723 8.19292 16.4681 8.19292 16.1537L8.19293 1.35372C8.19293 1.03934 7.93807 0.784491 7.62369 0.784491C7.30932 0.78449 7.05446 1.03934 7.05446 1.35372ZM7.62369 17.0076C8.09526 17.0076 8.47754 16.6253 8.47754 16.1537L8.47754 1.35372C8.47754 0.882156 8.09526 0.499876 7.62369 0.499876C7.15213 0.499876 6.76985 0.882156 6.76985 1.35372L6.76985 16.1537C6.76985 16.6253 7.15213 17.0076 7.62369 17.0076Z" fill="#D586FD"/>
<path d="M14.7383 16.1537C14.7383 16.6253 14.356 17.0076 13.8844 17.0076C13.4129 17.0076 13.0306 16.6253 13.0306 16.1537L13.0306 1.35372C13.0306 0.882154 13.4129 0.499876 13.8844 0.499876C14.356 0.499876 14.7383 0.882154 14.7383 1.35372L14.7383 16.1537Z" fill="#D586FD"/>
<path fill-rule="evenodd" clip-rule="evenodd" d="M13.3152 1.35372L13.3152 16.1537C13.3152 16.4681 13.5701 16.723 13.8844 16.723C14.1988 16.723 14.4537 16.4681 14.4537 16.1537L14.4537 1.35372C14.4537 1.03934 14.1988 0.784491 13.8844 0.784491C13.5701 0.78449 13.3152 1.03934 13.3152 1.35372ZM13.8844 17.0076C14.356 17.0076 14.7383 16.6253 14.7383 16.1537L14.7383 1.35372C14.7383 0.882156 14.356 0.499876 13.8844 0.499876C13.4129 0.499876 13.0306 0.882156 13.0306 1.35372L13.0306 16.1537C13.0306 16.6253 13.4129 17.0076 13.8844 17.0076Z" fill="#D586FD"/>
<path fill-rule="evenodd" clip-rule="evenodd" d="M10.5055 7.33308C12.796 7.29128 15.0772 7.82838 16.9478 8.90428C18.8136 9.97742 20.2517 11.5848 20.7834 13.5499C21.3261 15.5558 20.8272 17.5864 19.5383 19.2304C18.2821 20.8327 16.2883 22.0882 14.1049 22.671C13.6493 22.7926 13.1813 22.5218 13.0597 22.0662C12.9381 21.6106 13.2089 21.1426 13.6645 21.021C15.5366 20.5214 17.1948 19.4518 18.1944 18.1768C19.1861 16.912 19.5228 15.4294 19.135 13.9959C18.7482 12.5663 17.6686 11.2889 16.0964 10.3846C14.5233 9.47977 12.5534 9.00366 10.5366 9.04046C8.51984 9.07726 6.58635 9.62458 5.07957 10.5857C3.57351 11.5463 2.58533 12.8623 2.30057 14.3056C2.01519 15.7521 2.45732 17.2194 3.53658 18.4451C4.65316 19.7132 5.94745 20.5917 7.81156 21.0132C8.2715 21.1172 8.56006 21.5743 8.45608 22.0343C8.35209 22.4942 7.89493 22.7828 7.43498 22.6788C5.17788 22.1685 3.57879 21.0771 2.25495 19.5736C0.872377 18.0034 0.223802 16.0096 0.625215 13.9751C1.02014 11.9734 2.35791 10.2962 4.16124 9.14597C5.96657 7.99443 8.21571 7.37486 10.5055 7.33308Z" fill="#8726B9"/>
<path fill-rule="evenodd" clip-rule="evenodd" d="M11.0023 30.6669C8.71205 30.7083 6.43094 30.1769 4.56047 29.1125C2.69486 28.0508 1.25639 26.4603 0.724537 24.5154C0.18158 22.5298 0.680772 20.52 1.96988 18.8931C3.2017 17.3385 5.18051 15.9155 7.40269 15.3287C7.85834 15.2084 8.32617 15.4768 8.44761 15.9283C8.56906 16.3798 8.29813 16.8433 7.84248 16.9636C6.00916 17.4478 4.33698 18.6457 3.31303 19.938C2.3216 21.1892 1.98514 22.6554 2.37277 24.0729C2.75937 25.4867 3.83864 26.7505 5.41097 27.6453C6.98411 28.5405 8.95417 29.0116 10.9712 28.9752C12.9882 28.9388 14.9219 28.3972 16.4287 27.4462C17.9349 26.4957 18.9227 25.1938 19.2073 23.7666C19.4925 22.3363 19.0507 20.8852 17.9716 19.6726C16.8226 18.3815 15.5221 17.3799 13.696 16.9714C13.236 16.8685 12.9473 16.4156 13.0511 15.9599C13.155 15.5041 13.612 15.218 14.072 15.3209C16.367 15.8343 17.9611 17.1025 19.2525 18.5536C20.6352 20.1073 21.2841 22.0806 20.8826 24.0945C20.4875 26.0757 19.1493 27.7353 17.3461 28.8733C15.5408 30.0127 13.2919 30.6256 11.0023 30.6669Z" fill="#D586FD"/>
<path d="M13.0303 21.846C13.0303 21.3745 13.4126 20.9922 13.8841 20.9922C14.3557 20.9922 14.738 21.3745 14.738 21.846L14.738 36.646C14.738 37.1176 14.3557 37.4999 13.8841 37.4999C13.4126 37.4999 13.0303 37.1176 13.0303 36.646L13.0303 21.846Z" fill="#8726B9"/>
<path d="M6.76953 21.846C6.76953 21.3745 7.15181 20.9922 7.62338 20.9922C8.09494 20.9922 8.47722 21.3745 8.47722 21.846L8.47722 36.646C8.47722 37.1176 8.09494 37.4999 7.62337 37.4999C7.15181 37.4999 6.76953 37.1176 6.76953 36.646L6.76953 21.846Z" fill="#8726B9"/>
</svg>
