<svg width="24" height="24" viewBox="0 0 24 24" fill="none" xmlns="http://www.w3.org/2000/svg">
<path d="M7.975 11H3.025C1.35699 11 0 9.64301 0 7.975V3.025C0 1.35699 1.35699 0 3.025 0H7.975C9.64301 0 11 1.35699 11 3.025V7.975C11 9.64301 9.64301 11 7.975 11ZM3.025 1.46667C2.16572 1.46667 1.46667 2.16572 1.46667 3.025V7.975C1.46667 8.83428 2.16572 9.53333 3.025 9.53333H7.975C8.83428 9.53333 9.53333 8.83428 9.53333 7.975V3.025C9.53333 2.16572 8.83428 1.46667 7.975 1.46667H3.025Z" fill="#321841"/>
<path d="M20.975 11H16.025C14.357 11 13 9.64301 13 7.975V3.025C13 1.35699 14.357 0 16.025 0H20.975C22.643 0 24 1.35699 24 3.025V7.975C24 9.64301 22.643 11 20.975 11ZM16.025 1.46667C15.1657 1.46667 14.4667 2.16572 14.4667 3.025V7.975C14.4667 8.83428 15.1657 9.53333 16.025 9.53333H20.975C21.8343 9.53333 22.5333 8.83428 22.5333 7.975V3.025C22.5333 2.16572 21.8343 1.46667 20.975 1.46667H16.025Z" fill="#321841"/>
<path d="M18.5 24C15.4673 24 13 21.5327 13 18.5C13 15.4673 15.4673 13 18.5 13C21.5327 13 24 15.4673 24 18.5C24 21.5327 21.5327 24 18.5 24ZM18.5 14.4667C16.276 14.4667 14.4667 16.276 14.4667 18.5C14.4667 20.724 16.276 22.5333 18.5 22.5333C20.724 22.5333 22.5333 20.724 22.5333 18.5C22.5333 16.276 20.724 14.4667 18.5 14.4667Z" fill="#321841"/>
<path d="M7.975 24H3.025C1.35699 24 0 22.643 0 20.975V16.025C0 14.357 1.35699 13 3.025 13H7.975C9.64301 13 11 14.357 11 16.025V20.975C11 22.643 9.64301 24 7.975 24ZM3.025 14.4667C2.16572 14.4667 1.46667 15.1657 1.46667 16.025V20.975C1.46667 21.8343 2.16572 22.5333 3.025 22.5333H7.975C8.83428 22.5333 9.53333 21.8343 9.53333 20.975V16.025C9.53333 15.1657 8.83428 14.4667 7.975 14.4667H3.025Z" fill="#321841"/>
</svg>
