<svg width="48" height="48" viewBox="0 0 48 48" fill="none" xmlns="http://www.w3.org/2000/svg">
<path d="M9.166 34.642C7.106 32.454 6 30 6 26.022C6 19.022 10.914 12.748 18.06 9.646L19.846 12.402C13.176 16.01 11.872 20.692 11.352 23.644C12.426 23.088 13.832 22.894 15.21 23.022C18.818 23.356 21.662 26.318 21.662 30C21.662 31.8565 20.9245 33.637 19.6117 34.9497C18.299 36.2625 16.5185 37 14.662 37C13.6353 36.991 12.6207 36.7779 11.6771 36.3731C10.7336 35.9683 9.87997 35.3798 9.166 34.642ZM29.166 34.642C27.106 32.454 26 30 26 26.022C26 19.022 30.914 12.748 38.06 9.646L39.846 12.402C33.176 16.01 31.872 20.692 31.352 23.644C32.426 23.088 33.832 22.894 35.21 23.022C38.818 23.356 41.662 26.318 41.662 30C41.662 31.8565 40.9245 33.637 39.6117 34.9497C38.299 36.2625 36.5185 37 34.662 37C33.6353 36.991 32.6207 36.7779 31.6771 36.3731C30.7336 35.9683 29.88 35.3798 29.166 34.642Z" fill="#64108F"/>
</svg>
