<svg width="70" height="70" viewBox="0 0 70 70" fill="none" xmlns="http://www.w3.org/2000/svg">
<circle cx="35" cy="35" r="35" fill="#BB9CF7" fill-opacity="0.3"/>
<circle cx="35" cy="35" r="28" fill="#BB9CF7"/>
<g clip-path="url(#clip0_1376_8492)">
<path d="M35.5 49.875C44.8883 49.875 52.5 43.2153 52.5 35C52.5 26.7847 44.8883 20.125 35.5 20.125C26.1117 20.125 18.5 26.7847 18.5 35C18.5 38.74 20.0789 42.1613 22.6863 44.775C22.4801 46.934 21.8001 49.3013 21.0479 51.0777C20.88 51.473 21.2051 51.915 21.628 51.847C26.422 51.0608 29.2716 49.8538 30.5105 49.2248C32.1381 49.6588 33.8155 49.8775 35.5 49.875Z" fill="white"/>
</g>
<defs>
<clipPath id="clip0_1376_8492">
<rect width="34" height="34" fill="white" transform="translate(18.5 18)"/>
</clipPath>
</defs>
</svg>
