<svg width="71" height="70" viewBox="0 0 71 70" fill="none" xmlns="http://www.w3.org/2000/svg">
<circle cx="35.5" cy="35" r="35" fill="#BB9CF7" fill-opacity="0.3"/>
<circle cx="35.5" cy="35" r="28" fill="#BB9CF7"/>
<path d="M38.555 19.2781C38.4066 19.1547 38.2307 19.0689 38.0422 19.0277C37.8536 18.9865 37.658 18.9913 37.4717 19.0416C37.2854 19.0919 37.1139 19.1863 36.9717 19.3167C36.8295 19.4472 36.7207 19.6099 36.6546 19.7912L33.3444 28.8807L29.7092 25.3584C29.5871 25.24 29.4413 25.1488 29.2814 25.0908C29.1215 25.0328 28.9512 25.0094 28.7816 25.022C28.612 25.0347 28.447 25.0831 28.2975 25.1642C28.148 25.2453 28.0173 25.3571 27.9142 25.4923C24.6551 29.7625 23 34.0582 23 38.2592C23 41.7708 24.395 45.1387 26.8782 47.6218C29.3613 50.105 32.7292 51.5 36.2408 51.5C39.7525 51.5 43.1204 50.105 45.6035 47.6218C48.0867 45.1387 49.4817 41.7708 49.4817 38.2592C49.4817 29.3141 41.8396 22.009 38.555 19.2781Z" fill="white"/>
</svg>
