<svg width="71" height="70" viewBox="0 0 71 70" fill="none" xmlns="http://www.w3.org/2000/svg">
<circle cx="35.5" cy="35" r="35" fill="#BB9CF7" fill-opacity="0.3"/>
<circle cx="35.5" cy="35" r="28" fill="#BB9CF7"/>
<path d="M29.125 35C30.9484 35 32.697 34.2757 33.9864 32.9864C35.2757 31.697 36 29.9484 36 28.125C36 26.3016 35.2757 24.553 33.9864 23.2636C32.697 21.9743 30.9484 21.25 29.125 21.25C27.3016 21.25 25.553 21.9743 24.2636 23.2636C22.9743 24.553 22.25 26.3016 22.25 28.125C22.25 29.9484 22.9743 31.697 24.2636 32.9864C25.553 34.2757 27.3016 35 29.125 35ZM44.75 35C46.0761 35 47.3479 34.4732 48.2855 33.5355C49.2232 32.5979 49.75 31.3261 49.75 30C49.75 28.6739 49.2232 27.4021 48.2855 26.4645C47.3479 25.5268 46.0761 25 44.75 25C43.4239 25 42.1521 25.5268 41.2145 26.4645C40.2768 27.4021 39.75 28.6739 39.75 30C39.75 31.3261 40.2768 32.5979 41.2145 33.5355C42.1521 34.4732 43.4239 35 44.75 35ZM22.25 37.5C21.2554 37.5 20.3016 37.8951 19.5983 38.5983C18.8951 39.3016 18.5 40.2554 18.5 41.25V41.4375C18.5 41.4375 18.5 48.75 29.125 48.75C39.75 48.75 39.75 41.4375 39.75 41.4375V41.25C39.75 40.2554 39.3549 39.3016 38.6517 38.5983C37.9484 37.8951 36.9946 37.5 36 37.5H22.25ZM44.75 46.25C42.93 46.25 41.49 46.0025 40.3488 45.6087C40.8888 44.7337 41.1987 43.89 41.3737 43.2087C41.5013 42.7192 41.5821 42.2186 41.615 41.7138C41.6175 41.6637 41.62 41.6187 41.62 41.58L41.6213 41.5275V41.25C41.6234 39.8662 41.1136 38.5305 40.19 37.5H50.4913C50.8863 37.4998 51.2775 37.5775 51.6426 37.7286C52.0076 37.8796 52.3393 38.1011 52.6187 38.3804C52.8981 38.6597 53.1197 38.9913 53.271 39.3563C53.4222 39.7213 53.5 40.1124 53.5 40.5075C53.5 40.5075 53.5 46.25 44.75 46.25Z" fill="white"/>
</svg>
