<svg width="48" height="48" viewBox="0 0 48 48" fill="none" xmlns="http://www.w3.org/2000/svg">
<path d="M26.8838 3.34706C26.6988 3.19332 26.4797 3.0863 26.2447 3.03501C26.0098 2.98371 25.766 2.98966 25.5338 3.05234C25.3016 3.11502 25.088 3.2326 24.9108 3.39517C24.7336 3.55774 24.598 3.76052 24.5156 3.98643L20.3906 15.3133L15.8606 10.9239C15.7085 10.7764 15.5268 10.6627 15.3276 10.5905C15.1283 10.5183 14.916 10.4891 14.7047 10.5048C14.4933 10.5206 14.2877 10.581 14.1014 10.682C13.9151 10.783 13.7523 10.9223 13.6238 11.0908C9.5625 16.4121 7.5 21.7652 7.5 27.0002C7.5 31.3763 9.23839 35.5731 12.3327 38.6674C15.4271 41.7618 19.6239 43.5002 24 43.5002C28.3761 43.5002 32.5729 41.7618 35.6673 38.6674C38.7616 35.5731 40.5 31.3763 40.5 27.0002C40.5 15.8533 30.9769 6.75018 26.8838 3.34706Z" fill="#8726B9"/>
</svg>
