<svg width="28" height="28" viewBox="0 0 28 28" fill="none" xmlns="http://www.w3.org/2000/svg">
<path fill-rule="evenodd" clip-rule="evenodd" d="M6.75189 16.3566C6.80202 16.3733 6.85357 16.3854 6.90589 16.3927C7.23597 17.1705 7.56419 17.9491 7.89056 18.7284C8.47739 20.1307 9.06889 21.5751 9.19839 21.9904C9.36056 22.5014 9.53089 22.8491 9.71756 23.0871C9.81439 23.2084 9.92523 23.3157 10.0559 23.3974C10.124 23.44 10.1968 23.4744 10.2729 23.5001C10.6462 23.6401 10.9869 23.5817 11.2004 23.5106C11.3257 23.4678 11.4449 23.409 11.5551 23.3356L11.5609 23.3332L14.8579 21.2776L18.6671 24.1966C18.7231 24.2397 18.7837 24.2759 18.8491 24.3051C19.3064 24.5034 19.7497 24.5734 20.1674 24.5174C20.5827 24.4591 20.9129 24.2852 21.1591 24.0881C21.4417 23.8602 21.6671 23.5694 21.8171 23.2387L21.8276 23.2131L21.8311 23.2037L21.8334 23.1991V23.1967L21.8346 23.1956C21.8548 23.1454 21.8705 23.0934 21.8812 23.0404L25.3579 5.51124C25.3689 5.45513 25.3743 5.39808 25.3742 5.3409C25.3742 4.82757 25.1806 4.33874 24.7267 4.04357C24.3371 3.7904 23.9042 3.77874 23.6301 3.79974C23.3361 3.82307 23.0631 3.8954 22.8799 3.95374C22.7774 3.98623 22.6762 4.02282 22.5766 4.0634L22.5637 4.06924L3.06406 11.7179L3.06173 11.7191C2.99575 11.7433 2.93076 11.7702 2.86689 11.7996C2.71227 11.8691 2.56394 11.9518 2.42356 12.0469C2.15873 12.2277 1.54856 12.7247 1.65239 13.5461C1.73406 14.1994 2.18206 14.6019 2.45623 14.7956C2.60556 14.9017 2.74789 14.9776 2.85289 15.0277C2.89956 15.0511 2.99989 15.0907 3.04306 15.1094L3.05473 15.1129L6.75189 16.3566ZM23.2462 5.67924H23.2439C23.2339 5.68369 23.2237 5.68797 23.2136 5.69207L3.69056 13.3512C3.68052 13.3553 3.6704 13.3592 3.66023 13.3629L3.64856 13.3664C3.6129 13.3804 3.57786 13.396 3.54356 13.4131C3.57603 13.4317 3.60953 13.4484 3.64389 13.4632L7.30956 14.6976C7.37507 14.7196 7.43773 14.7494 7.49623 14.7862L19.6027 7.69874L19.6144 7.6929C19.6614 7.66433 19.7097 7.63785 19.7591 7.61357C19.8431 7.5704 19.9772 7.5074 20.1289 7.46074C20.2339 7.42807 20.5454 7.3359 20.8814 7.4444C21.0596 7.50058 21.2184 7.60574 21.3397 7.74788C21.4611 7.89002 21.5399 8.0634 21.5674 8.24824C21.6108 8.41011 21.612 8.58043 21.5709 8.7429C21.4892 9.06374 21.2652 9.3134 21.0599 9.50474C20.8849 9.66807 18.6157 11.8567 16.3769 14.0174L13.3284 16.9574L12.7859 17.4824L19.6366 22.7347C19.729 22.7735 19.8295 22.7896 19.9294 22.7814C19.9797 22.7746 20.0271 22.7535 20.0659 22.7207C20.1132 22.6808 20.1538 22.6335 20.1861 22.5807L20.1884 22.5796L23.5601 5.57774C23.4538 5.60328 23.3497 5.63682 23.2486 5.67807L23.2462 5.67924ZM13.3751 20.1389L12.0077 19.0912L11.6764 21.1971L13.3751 20.1389ZM10.7536 17.0122L12.1127 15.6997L15.1612 12.7574L16.2964 11.6631L8.68973 16.1162L8.73056 16.2119C9.2103 17.3452 9.68475 18.4808 10.1539 19.6186L10.4841 17.5186C10.5139 17.3238 10.6089 17.1461 10.7536 17.0122Z" fill="#8726B9"/>
</svg>
