<svg width="28" height="28" viewBox="0 0 28 28" fill="none" xmlns="http://www.w3.org/2000/svg">
<path d="M13.1073 2.77045C12.678 2.94779 12.2941 3.33279 11.5253 4.10045C10.7565 4.87045 10.3715 5.25429 10.1953 5.68245C10.078 5.96559 10.0176 6.26906 10.0176 6.57554C10.0176 6.88201 10.078 7.18548 10.1953 7.46862C10.3715 7.89795 10.7553 8.28179 11.5253 9.05062C12.293 9.81945 12.678 10.2045 13.1073 10.3806C13.6788 10.6172 14.3208 10.6172 14.8923 10.3806C15.3216 10.2045 15.7055 9.82062 16.4743 9.05062C17.2443 8.28179 17.627 7.89795 17.8043 7.46862C18.0409 6.89714 18.0409 6.2551 17.8043 5.68362C17.627 5.25429 17.2443 4.87045 16.4743 4.10162C15.7055 3.33162 15.3216 2.94779 14.8923 2.77045C14.3208 2.53387 13.6788 2.53387 13.1073 2.77045ZM5.68148 10.1951C5.25331 10.3725 4.86831 10.7563 4.10064 11.5251C3.33064 12.2951 2.94681 12.679 2.76948 13.1071C2.65217 13.3903 2.5918 13.6937 2.5918 14.0002C2.5918 14.3067 2.65217 14.6101 2.76948 14.8933C2.94681 15.3226 3.33181 15.7065 4.09948 16.4753C4.86948 17.2441 5.25331 17.628 5.68148 17.8053C5.96461 17.9226 6.26808 17.983 6.57456 17.983C6.88103 17.983 7.18451 17.9226 7.46764 17.8053C7.89698 17.628 8.28081 17.2441 9.04964 16.4753C9.81964 15.7065 10.2023 15.3226 10.3796 14.8933C10.6162 14.3218 10.6162 13.6798 10.3796 13.1083C10.2023 12.679 9.81964 12.294 9.04964 11.5251C8.28081 10.7563 7.89698 10.3725 7.46764 10.1951C6.89616 9.95854 6.25296 9.95854 5.68148 10.1951ZM18.95 11.5251C18.1811 12.2951 17.7973 12.679 17.62 13.1071C17.5027 13.3903 17.4423 13.6937 17.4423 14.0002C17.4423 14.3067 17.5027 14.6101 17.62 14.8933C17.7973 15.3226 18.1811 15.7065 18.95 16.4753C19.7188 17.2441 20.1038 17.628 20.532 17.8053C21.1035 18.0419 21.7455 18.0419 22.317 17.8053C22.7463 17.628 23.1313 17.2441 23.9001 16.4753C24.669 15.7065 25.0516 15.3226 25.2301 14.8933C25.4667 14.3218 25.4667 13.6798 25.2301 13.1083C25.0516 12.679 24.669 12.294 23.9001 11.5251C23.1301 10.7563 22.7463 10.3725 22.3181 10.1951C22.035 10.0778 21.7315 10.0174 21.4251 10.0174C21.1186 10.0174 20.8151 10.0778 20.532 10.1951C20.1038 10.3725 19.7188 10.7563 18.95 11.5251ZM13.1073 17.6198C12.678 17.7971 12.2941 18.1821 11.5253 18.9498C10.7565 19.7198 10.3715 20.1036 10.1953 20.533C9.95873 21.1044 9.95873 21.7465 10.1953 22.318C10.3715 22.7473 10.7553 23.1311 11.5253 23.9C12.293 24.6688 12.678 25.0538 13.1073 25.23C13.6788 25.4665 14.3208 25.4665 14.8923 25.23C15.3216 25.0538 15.7055 24.67 16.4743 23.9C17.2443 23.1311 17.627 22.7473 17.8043 22.318C18.0411 21.7463 18.0411 21.1046 17.8043 20.533C17.627 20.1036 17.2443 19.7186 16.4743 18.951C15.7055 18.181 15.3216 17.7971 14.8923 17.6198C14.3208 17.3832 13.6788 17.3832 13.1073 17.6198Z" stroke="#8726B9" stroke-width="1.5" stroke-linecap="round" stroke-linejoin="round"/>
</svg>
