<svg width="28" height="28" viewBox="0 0 28 28" fill="none" xmlns="http://www.w3.org/2000/svg">
<path d="M16.719 23.3336H16.474C15.9802 23.2846 15.5149 23.0795 15.1456 22.748C14.7764 22.4165 14.5224 21.9759 14.4207 21.4903L11.294 7.00026L8.07398 14.4669C7.98291 14.6756 7.83275 14.8531 7.64203 14.9775C7.4513 15.1019 7.22835 15.1677 7.00065 15.1669H3.50065C3.19123 15.1669 2.89449 15.044 2.67569 14.8252C2.4569 14.6064 2.33398 14.3097 2.33398 14.0003C2.33398 13.6908 2.4569 13.3941 2.67569 13.1753C2.89449 12.9565 3.19123 12.8336 3.50065 12.8336H6.23065L9.15898 6.0786C9.35611 5.6253 9.6921 5.24632 10.1185 4.99629C10.5449 4.74626 11.0397 4.63811 11.5315 4.68742C12.0234 4.73674 12.4868 4.94097 12.8551 5.27068C13.2234 5.60038 13.4774 6.03852 13.5807 6.52193L16.7073 21.0003L19.9273 13.5569C20.0148 13.3439 20.1635 13.1615 20.3545 13.0328C20.5455 12.904 20.7703 12.8347 21.0007 12.8336H24.5007C24.8101 12.8336 25.1068 12.9565 25.3256 13.1753C25.5444 13.3941 25.6673 13.6908 25.6673 14.0003C25.6673 14.3097 25.5444 14.6064 25.3256 14.8252C25.1068 15.044 24.8101 15.1669 24.5007 15.1669H21.7707L18.8423 21.9219C18.6635 22.3379 18.3675 22.6928 17.9905 22.9434C17.6135 23.1941 17.1717 23.3297 16.719 23.3336Z" fill="#8726B9"/>
</svg>
