<svg width="20" height="21" viewBox="0 0 20 21" fill="none" xmlns="http://www.w3.org/2000/svg">
<path d="M9.28061 1.73901L10.9113 1.74314C11.554 1.8208 12.1174 2.12314 12.5817 2.63367C12.9608 3.05001 13.1599 3.5341 13.1715 4.06114H17.6943C17.8453 4.06202 17.9898 4.1228 18.0961 4.23013C18.2023 4.33747 18.2617 4.48259 18.261 4.63362C18.2613 4.70837 18.2469 4.78245 18.2186 4.85163C18.1903 4.92081 18.1487 4.98373 18.096 5.03682C18.0434 5.0899 17.9809 5.1321 17.9119 5.161C17.843 5.18991 17.769 5.20495 17.6943 5.20527L16.1776 5.20445V14.8094C16.1776 16.9101 15.3937 18.2608 13.6655 18.2608H6.21582C4.48765 18.2608 3.71608 16.9175 3.71608 14.8094V5.20445H2.30595C2.15529 5.20379 2.01103 5.14342 1.9048 5.03658C1.79857 4.92973 1.73904 4.78512 1.73926 4.63445C1.73926 4.31806 1.99287 4.0628 2.30595 4.0628H6.82465C6.83622 3.63819 6.994 3.2078 7.2823 2.78236C7.71187 2.14793 8.38265 1.80014 9.28061 1.73901ZM15.0442 5.20445H4.84865V14.8094C4.84865 16.369 5.27822 17.1174 6.21582 17.1174H13.6655C14.6064 17.1174 15.045 16.3624 15.045 14.8094L15.0442 5.20445ZM7.28726 6.97641C7.59952 6.97641 7.85313 7.23249 7.85313 7.54806V14.1981C7.85345 14.2728 7.83906 14.3469 7.81075 14.4161C7.78245 14.4852 7.7408 14.5482 7.68818 14.6013C7.63555 14.6543 7.57299 14.6965 7.50406 14.7254C7.43513 14.7543 7.36118 14.7694 7.28643 14.7697C7.13562 14.7688 6.99132 14.7081 6.88522 14.601C6.77913 14.4938 6.7199 14.3489 6.72056 14.1981V7.54806C6.72056 7.23249 6.975 6.97641 7.28726 6.97641ZM9.53917 6.97641C9.85309 6.97641 10.1059 7.23249 10.1059 7.54806V14.1981C10.1062 14.2728 10.0918 14.3469 10.0635 14.4161C10.0352 14.4852 9.99354 14.5482 9.94091 14.6013C9.88829 14.6543 9.82573 14.6965 9.7568 14.7254C9.68787 14.7543 9.61392 14.7694 9.53917 14.7697C9.38836 14.7688 9.24406 14.7081 9.13796 14.601C9.03187 14.4938 8.97264 14.3489 8.9733 14.1981V7.54806C8.9733 7.23249 9.22691 6.97641 9.53917 6.97641ZM11.7927 6.97641C12.105 6.97641 12.3586 7.23249 12.3586 7.54806V14.1981C12.3593 14.3489 12.3 14.4938 12.1939 14.601C12.0878 14.7081 11.9435 14.7688 11.7927 14.7697C11.718 14.7694 11.644 14.7543 11.5751 14.7254C11.5062 14.6965 11.4436 14.6543 11.391 14.6013C11.3384 14.5482 11.2967 14.4852 11.2684 14.4161C11.2401 14.3469 11.2257 14.2728 11.226 14.1981V7.54806C11.2256 7.39717 11.285 7.25226 11.3912 7.1451C11.4975 7.03795 11.6419 6.97728 11.7927 6.97641ZM9.31943 2.88067C8.78908 2.91784 8.43965 3.09875 8.21743 3.42754C8.05387 3.66793 7.97208 3.8761 7.95887 4.06197L12.0381 4.06114C12.0265 3.82075 11.9315 3.60927 11.7473 3.40688C11.4615 3.09297 11.1443 2.9228 10.8444 2.88232L9.31943 2.88067Z" fill="#321841"/>
</svg>
