<svg width="20" height="20" viewBox="0 0 20 20" fill="none" xmlns="http://www.w3.org/2000/svg">
<path d="M9.99984 12.9809L7.0515 10.0317L7.64067 9.43258L9.58317 11.3751V4.16675H10.4165V11.3751L12.3582 9.43341L12.9482 10.0317L9.99984 12.9809ZM5.51234 15.8334C5.129 15.8334 4.809 15.7051 4.55234 15.4484C4.29511 15.1912 4.1665 14.8709 4.1665 14.4876V12.4684H4.99984V14.4876C4.99984 14.6154 5.05317 14.7329 5.15984 14.8401C5.26706 14.9467 5.38456 15.0001 5.51234 15.0001H14.4873C14.6151 15.0001 14.7326 14.9467 14.8398 14.8401C14.9465 14.7329 14.9998 14.6154 14.9998 14.4876V12.4684H15.8332V14.4876C15.8332 14.8709 15.7048 15.1909 15.4482 15.4476C15.1909 15.7048 14.8707 15.8334 14.4873 15.8334H5.51234Z" fill="#321841"/>
</svg>
