<svg width="20" height="21" viewBox="0 0 20 21" fill="none" xmlns="http://www.w3.org/2000/svg">
<path d="M2.77831 11.4823C4.26117 12.9565 6.84725 14.9999 9.78946 14.9999C12.7317 14.9999 15.3173 12.9565 16.8001 11.4823C17.1912 11.0936 17.3874 10.8985 17.5119 10.5168C17.6008 10.2444 17.6008 9.75561 17.5119 9.48325C17.3874 9.10151 17.1912 8.90642 16.8001 8.51759C15.3173 7.0434 12.7317 5 9.78946 5C6.84725 5 4.26117 7.0434 2.77831 8.51759C2.38692 8.90669 2.19121 9.10137 2.06664 9.48325C1.97779 9.75561 1.97779 10.2444 2.06664 10.5168C2.19121 10.8986 2.38692 11.0932 2.77831 11.4823Z" stroke="#321841" stroke-linecap="round" stroke-linejoin="round"/>
<path d="M8.12264 10C8.12264 10.9205 8.86883 11.6667 9.78931 11.6667C10.7098 11.6667 11.456 10.9205 11.456 10C11.456 9.07953 10.7098 8.33333 9.78931 8.33333C8.86883 8.33333 8.12264 9.07953 8.12264 10Z" stroke="#321841" stroke-linecap="round" stroke-linejoin="round"/>
</svg>
