<svg width="34" height="35" viewBox="0 0 34 35" fill="none" xmlns="http://www.w3.org/2000/svg">
<path d="M15.8319 6.14535C16.1475 5.84693 16.5654 5.68066 16.9998 5.68066C17.4342 5.68066 17.8521 5.84693 18.1677 6.14535L26.4025 13.9296C26.9125 14.4107 27.1998 15.0822 27.1998 15.7826V25.2516C27.1998 25.9279 26.9311 26.5765 26.4529 27.0548C25.9747 27.533 25.3261 27.8016 24.6498 27.8016H21.2498C20.9148 27.8016 20.5831 27.7356 20.2736 27.6074C19.9641 27.4791 19.6829 27.2911 19.4461 27.0542C19.2093 26.8172 19.0215 26.5359 18.8934 26.2263C18.7654 25.9167 18.6996 25.585 18.6998 25.2499V20.9999C18.6998 20.7745 18.6103 20.5583 18.4508 20.3989C18.2914 20.2395 18.0752 20.1499 17.8498 20.1499H16.1498C15.9244 20.1499 15.7082 20.2395 15.5488 20.3989C15.3894 20.5583 15.2998 20.7745 15.2998 20.9999V25.2499C15.2998 25.9262 15.0311 26.5749 14.5529 27.0531C14.0747 27.5313 13.4261 27.7999 12.7498 27.7999H9.3498C8.6735 27.7999 8.0249 27.5313 7.54668 27.0531C7.06846 26.5749 6.7998 25.9262 6.7998 25.2499V15.7809C6.7998 15.0805 7.0888 14.409 7.5988 13.9279L15.8319 6.14195V6.14535ZM16.9998 7.37955L8.765 15.1655C8.68141 15.2448 8.61479 15.3402 8.5692 15.446C8.52361 15.5518 8.5 15.6658 8.4998 15.7809V25.2499C8.4998 25.4754 8.58936 25.6916 8.74876 25.851C8.90817 26.0104 9.12437 26.0999 9.3498 26.0999H12.7498C12.9752 26.0999 13.1914 26.0104 13.3508 25.851C13.5103 25.6916 13.5998 25.4754 13.5998 25.2499V20.9999C13.5998 20.3236 13.8685 19.675 14.3467 19.1968C14.8249 18.7186 15.4735 18.4499 16.1498 18.4499H17.8498C18.5261 18.4499 19.1747 18.7186 19.6529 19.1968C20.1311 19.675 20.3998 20.3236 20.3998 20.9999V25.2499C20.3998 25.4754 20.4894 25.6916 20.6488 25.851C20.8082 26.0104 21.0244 26.0999 21.2498 26.0999H24.6498C24.8752 26.0999 25.0914 26.0104 25.2508 25.851C25.4103 25.6916 25.4998 25.4754 25.4998 25.2499V15.7809C25.4998 15.6655 25.4763 15.5512 25.4307 15.4451C25.3852 15.339 25.3184 15.2433 25.2346 15.1638L16.9998 7.37955Z" fill="#FCFCFD"/>
</svg>
