<svg width="25" height="24" viewBox="0 0 25 24" fill="none" xmlns="http://www.w3.org/2000/svg">
<path d="M4.8457 18C4.8457 16.9391 5.26713 15.9217 6.01728 15.1716C6.76742 14.4214 7.78484 14 8.8457 14H16.8457C17.9066 14 18.924 14.4214 19.6741 15.1716C20.4243 15.9217 20.8457 16.9391 20.8457 18C20.8457 18.5304 20.635 19.0391 20.2599 19.4142C19.8848 19.7893 19.3761 20 18.8457 20H6.8457C6.31527 20 5.80656 19.7893 5.43149 19.4142C5.05642 19.0391 4.8457 18.5304 4.8457 18Z" stroke="#321841" stroke-width="1.5" stroke-linejoin="round"/>
<path d="M12.8457 10C14.5026 10 15.8457 8.65685 15.8457 7C15.8457 5.34315 14.5026 4 12.8457 4C11.1888 4 9.8457 5.34315 9.8457 7C9.8457 8.65685 11.1888 10 12.8457 10Z" stroke="#321841" stroke-width="1.5"/>
</svg>
