<svg width="18" height="19" viewBox="0 0 18 19" fill="none" xmlns="http://www.w3.org/2000/svg">
<path d="M1 15.5996C1 14.5387 1.42143 13.5213 2.17157 12.7712C2.92172 12.021 3.93913 11.5996 5 11.5996H13C14.0609 11.5996 15.0783 12.021 15.8284 12.7712C16.5786 13.5213 17 14.5387 17 15.5996C17 16.13 16.7893 16.6387 16.4142 17.0138C16.0391 17.3889 15.5304 17.5996 15 17.5996H3C2.46957 17.5996 1.96086 17.3889 1.58579 17.0138C1.21071 16.6387 1 16.13 1 15.5996Z" stroke="#FCFCFD" stroke-width="1.5" stroke-linejoin="round"/>
<path d="M9 7.59961C10.6569 7.59961 12 6.25646 12 4.59961C12 2.94276 10.6569 1.59961 9 1.59961C7.34315 1.59961 6 2.94276 6 4.59961C6 6.25646 7.34315 7.59961 9 7.59961Z" stroke="#FCFCFD" stroke-width="1.5"/>
</svg>
