<svg width="25" height="24" viewBox="0 0 25 24" fill="none" xmlns="http://www.w3.org/2000/svg">
<path d="M13.9707 16.875C13.9707 17.0975 13.9047 17.315 13.7811 17.5C13.6575 17.685 13.4818 17.8292 13.2762 17.9144C13.0707 17.9995 12.8445 18.0218 12.6262 17.9784C12.408 17.935 12.2075 17.8278 12.0502 17.6705C11.8929 17.5132 11.7857 17.3127 11.7423 17.0945C11.6989 16.8762 11.7212 16.65 11.8063 16.4445C11.8915 16.2389 12.0357 16.0632 12.2207 15.9396C12.4057 15.816 12.6232 15.75 12.8457 15.75C13.1441 15.75 13.4302 15.8685 13.6412 16.0795C13.8522 16.2905 13.9707 16.5766 13.9707 16.875ZM12.8457 6.75C10.7776 6.75 9.09571 8.26406 9.09571 10.125V10.5C9.09571 10.6989 9.17473 10.8897 9.31538 11.0303C9.45603 11.171 9.6468 11.25 9.84571 11.25C10.0446 11.25 10.2354 11.171 10.376 11.0303C10.5167 10.8897 10.5957 10.6989 10.5957 10.5V10.125C10.5957 9.09375 11.6054 8.25 12.8457 8.25C14.086 8.25 15.0957 9.09375 15.0957 10.125C15.0957 11.1562 14.086 12 12.8457 12C12.6468 12 12.456 12.079 12.3154 12.2197C12.1747 12.3603 12.0957 12.5511 12.0957 12.75V13.5C12.0957 13.6989 12.1747 13.8897 12.3154 14.0303C12.456 14.171 12.6468 14.25 12.8457 14.25C13.0446 14.25 13.2354 14.171 13.376 14.0303C13.5167 13.8897 13.5957 13.6989 13.5957 13.5V13.4325C15.3057 13.1184 16.5957 11.7544 16.5957 10.125C16.5957 8.26406 14.9138 6.75 12.8457 6.75ZM22.5957 12C22.5957 13.9284 22.0239 15.8134 20.9525 17.4168C19.8812 19.0202 18.3584 20.2699 16.5769 21.0078C14.7953 21.7458 12.8349 21.9389 10.9436 21.5627C9.05226 21.1865 7.31498 20.2579 5.95142 18.8943C4.58785 17.5307 3.65926 15.7934 3.28305 13.9021C2.90685 12.0108 3.09993 10.0504 3.83788 8.26884C4.57584 6.48726 5.82552 4.96451 7.4289 3.89317C9.03228 2.82183 10.9173 2.25 12.8457 2.25C15.4307 2.25273 17.9091 3.28084 19.737 5.10872C21.5649 6.93661 22.593 9.41498 22.5957 12ZM21.0957 12C21.0957 10.3683 20.6119 8.77325 19.7053 7.41655C18.7988 6.05984 17.5103 5.00242 16.0028 4.37799C14.4954 3.75357 12.8366 3.59019 11.2362 3.90852C9.63587 4.22685 8.16586 5.01259 7.01208 6.16637C5.85829 7.32015 5.07256 8.79016 4.75423 10.3905C4.4359 11.9908 4.59928 13.6496 5.2237 15.1571C5.84812 16.6646 6.90555 17.9531 8.26225 18.8596C9.61896 19.7661 11.214 20.25 12.8457 20.25C15.033 20.2475 17.13 19.3775 18.6766 17.8309C20.2232 16.2843 21.0932 14.1873 21.0957 12Z" fill="#291408"/>
</svg>
