<svg width="25" height="24" viewBox="0 0 25 24" fill="none" xmlns="http://www.w3.org/2000/svg">
<path d="M11.6449 15.5999C11.7289 15.5999 11.8129 15.5975 11.8969 15.5915C12.0289 15.1271 12.2089 14.6831 12.4345 14.2667C12.0728 14.3927 11.6861 14.4303 11.3069 14.3764C10.9277 14.3224 10.5669 14.1785 10.2546 13.9566C9.94238 13.7347 9.6878 13.4413 9.51214 13.1009C9.33648 12.7605 9.24486 12.383 9.24492 11.9999V6.0011C9.24492 5.36458 9.49778 4.75413 9.94787 4.30405C10.398 3.85396 11.0084 3.6011 11.6449 3.6011C12.2814 3.6011 12.8919 3.85396 13.342 4.30405C13.7921 4.75413 14.0449 5.36458 14.0449 6.0011V12.0011C14.0449 12.1115 14.0377 12.2207 14.0233 12.3275C14.3992 12.014 14.8089 11.7435 15.2449 11.5211V5.9999C15.2449 5.04512 14.8656 4.12945 14.1905 3.45432C13.5154 2.77919 12.5997 2.3999 11.6449 2.3999C10.6901 2.3999 9.77447 2.77919 9.09934 3.45432C8.42421 4.12945 8.04492 5.04512 8.04492 5.9999V11.9999C8.04492 12.9547 8.42421 13.8704 9.09934 14.5455C9.77447 15.2206 10.6901 15.5999 11.6449 15.5999ZM6.24492 11.9999C6.24492 13.4321 6.81385 14.8056 7.82655 15.8183C8.83924 16.831 10.2128 17.3999 11.6449 17.3999C11.6449 18.3827 11.8597 19.3151 12.2449 20.1527V20.9999C12.2449 21.159 12.1817 21.3116 12.0692 21.4242C11.9567 21.5367 11.8041 21.5999 11.6449 21.5999C11.4858 21.5999 11.3332 21.5367 11.2207 21.4242C11.1081 21.3116 11.0449 21.159 11.0449 20.9999V18.5735C9.40502 18.4238 7.88032 17.6665 6.77019 16.4502C5.66005 15.2339 5.04469 13.6466 5.04492 11.9999C5.04492 11.8408 5.10814 11.6882 5.22066 11.5756C5.33318 11.4631 5.48579 11.3999 5.64492 11.3999C5.80405 11.3999 5.95666 11.4631 6.06919 11.5756C6.18171 11.6882 6.24492 11.8408 6.24492 11.9999ZM21.2449 17.3999C21.2449 18.1956 20.9289 18.9586 20.3662 19.5212C19.8036 20.0838 19.0406 20.3999 18.2449 20.3999C17.4493 20.3999 16.6862 20.0838 16.1236 19.5212C15.561 18.9586 15.2449 18.1956 15.2449 17.3999C15.2449 16.6043 15.561 15.8412 16.1236 15.2786C16.6862 14.716 17.4493 14.3999 18.2449 14.3999C19.0406 14.3999 19.8036 14.716 20.3662 15.2786C20.9289 15.8412 21.2449 16.6043 21.2449 17.3999ZM23.6449 17.3999C23.6449 18.8321 23.076 20.2056 22.0633 21.2183C21.0506 22.231 19.6771 22.7999 18.2449 22.7999C16.8128 22.7999 15.4392 22.231 14.4265 21.2183C13.4138 20.2056 12.8449 18.8321 12.8449 17.3999C12.8449 15.9677 13.4138 14.5942 14.4265 13.5815C15.4392 12.5688 16.8128 11.9999 18.2449 11.9999C19.6771 11.9999 21.0506 12.5688 22.0633 13.5815C23.076 14.5942 23.6449 15.9677 23.6449 17.3999ZM14.0449 17.3999C14.0449 17.9515 14.1536 18.4976 14.3646 19.0072C14.5757 19.5167 14.8851 19.9797 15.2751 20.3698C15.6651 20.7598 16.1281 21.0691 16.6377 21.2802C17.1472 21.4913 17.6934 21.5999 18.2449 21.5999C18.7965 21.5999 19.3426 21.4913 19.8522 21.2802C20.3618 21.0691 20.8248 20.7598 21.2148 20.3698C21.6048 19.9797 21.9141 19.5167 22.1252 19.0072C22.3363 18.4976 22.4449 17.9515 22.4449 17.3999C22.4449 16.286 22.0024 15.2177 21.2148 14.4301C20.4271 13.6424 19.3588 13.1999 18.2449 13.1999C17.131 13.1999 16.0627 13.6424 15.2751 14.4301C14.4874 15.2177 14.0449 16.286 14.0449 17.3999Z" fill="#321841"/>
</svg>
