<svg width="25" height="24" viewBox="0 0 25 24" fill="none" xmlns="http://www.w3.org/2000/svg">
<path d="M22.5952 20.6895L16.9312 15.0255C18.2923 13.3914 18.971 11.2956 18.8262 9.17389C18.6814 7.05219 17.7241 5.06801 16.1536 3.6341C14.5831 2.2002 12.5202 1.42697 10.3941 1.47528C8.26806 1.52359 6.24244 2.38971 4.73868 3.89347C3.23493 5.39723 2.3688 7.42284 2.32049 9.54893C2.27219 11.675 3.04541 13.7379 4.47932 15.3084C5.91322 16.8789 7.89741 17.8361 10.0191 17.981C12.1408 18.1258 14.2367 17.4471 15.8707 16.086L21.5347 21.75L22.5952 20.6895ZM3.84518 9.74996C3.84518 8.41494 4.24106 7.1099 4.98276 5.99987C5.72446 4.88983 6.77867 4.02467 8.01207 3.51378C9.24547 3.00289 10.6027 2.86921 11.912 3.12966C13.2214 3.39011 14.4241 4.03299 15.3682 4.97699C16.3122 5.921 16.955 7.12373 17.2155 8.4331C17.4759 9.74248 17.3423 11.0997 16.8314 12.3331C16.3205 13.5665 15.4553 14.6207 14.3453 15.3624C13.2352 16.1041 11.9302 16.5 10.5952 16.5C8.80558 16.498 7.08984 15.7862 5.8244 14.5207C4.55896 13.2553 3.84716 11.5396 3.84518 9.74996Z" fill="#291408"/>
</svg>
