<svg width="24" height="25" viewBox="0 0 24 25" fill="none" xmlns="http://www.w3.org/2000/svg">
<path d="M7.05078 6.37476C7.05078 6.07639 7.16931 5.79024 7.38029 5.57926C7.59127 5.36828 7.87741 5.24976 8.17578 5.24976H14.9258C15.2242 5.24976 15.5103 5.36828 15.7213 5.57926C15.9323 5.79024 16.0508 6.07639 16.0508 6.37476V7.49976C16.0508 7.79812 15.9323 8.08427 15.7213 8.29525C15.5103 8.50623 15.2242 8.62476 14.9258 8.62476H8.17578C7.87741 8.62476 7.59127 8.50623 7.38029 8.29525C7.16931 8.08427 7.05078 7.79812 7.05078 7.49976V6.37476ZM8.17578 6.37476V7.49976H14.9258V6.37476H8.17578ZM4.80078 5.24976V18.7498C4.80078 19.3465 5.03783 19.9188 5.45979 20.3407C5.88175 20.7627 6.45404 20.9998 7.05078 20.9998H17.7383C17.8875 20.9998 18.0305 20.9405 18.136 20.835C18.2415 20.7295 18.3008 20.5864 18.3008 20.4373C18.3008 20.2881 18.2415 20.145 18.136 20.0395C18.0305 19.934 17.8875 19.8748 17.7383 19.8748H7.05078C6.75241 19.8748 6.46627 19.7562 6.25529 19.5453C6.04431 19.3343 5.92578 19.0481 5.92578 18.7498H17.1758C17.4742 18.7498 17.7603 18.6312 17.9713 18.4203C18.1823 18.2093 18.3008 17.9231 18.3008 17.6248V5.24976C18.3008 4.65302 18.0637 4.08072 17.6418 3.65877C17.2198 3.23681 16.6475 2.99976 16.0508 2.99976H7.05078C6.45404 2.99976 5.88175 3.23681 5.45979 3.65877C5.03783 4.08072 4.80078 4.65302 4.80078 5.24976ZM16.0508 4.12476C16.3492 4.12476 16.6353 4.24328 16.8463 4.45426C17.0573 4.66524 17.1758 4.95139 17.1758 5.24976V17.6248H5.92578V5.24976C5.92578 4.95139 6.04431 4.66524 6.25529 4.45426C6.46627 4.24328 6.75241 4.12476 7.05078 4.12476H16.0508Z" fill="#FCFCFD"/>
</svg>
