<svg width="28" height="28" viewBox="0 0 28 28" fill="none" xmlns="http://www.w3.org/2000/svg">
<path d="M2.68865 19.985L3.49715 19.6513L2.68865 19.9862V19.985ZM13.4348 25.5407L13.7382 25.0297L12.2308 24.1383L11.9275 24.6493L13.4348 25.5407ZM9.59649 25.0297L9.89982 25.5407L11.406 24.6493L11.1027 24.1383L9.59649 25.0297ZM11.9287 24.6493C11.9019 24.6943 11.8635 24.7313 11.8175 24.7563C11.7715 24.7814 11.7196 24.7936 11.6673 24.7917C11.615 24.7936 11.5631 24.7814 11.5171 24.7563C11.4712 24.7313 11.4328 24.6943 11.406 24.6493L9.90099 25.5407C10.6897 26.8753 12.645 26.8753 13.4348 25.5407L11.9287 24.6493ZM10.2673 7.875H13.0673V6.125H10.2673V7.875ZM20.1257 14.9333V15.8667H21.8757V14.9333H20.1257ZM3.20899 15.8667V14.9333H1.45899V15.8667H3.20899ZM1.45899 15.8667C1.45899 16.9423 1.45899 17.7917 1.50565 18.48C1.55232 19.1753 1.65149 19.768 1.88132 20.321L3.49715 19.6513C3.37115 19.3468 3.29299 18.9665 3.25215 18.361C3.20899 17.7462 3.20899 16.9657 3.20899 15.8667H1.45899ZM7.36582 21.9742C6.44182 21.945 5.93899 21.8645 5.54932 21.7035L4.87965 23.3193C5.57615 23.6087 6.34382 23.6927 7.30982 23.7242L7.36582 21.9742ZM1.88132 20.321C2.44375 21.6784 3.52224 22.7569 4.87965 23.3193L5.54932 21.7035C5.08915 21.5128 4.67106 21.2333 4.31894 20.881C3.96682 20.5287 3.68757 20.1116 3.49715 19.6513L1.88132 20.321ZM20.1257 15.8667C20.1257 16.9657 20.1257 17.7462 20.0837 18.361C20.0417 18.9677 19.9635 19.3468 19.8375 19.6513L21.4533 20.321C21.6832 19.768 21.7812 19.1753 21.829 18.48C21.8757 17.7917 21.8757 16.9423 21.8757 15.8667H20.1257ZM16.0248 23.7242C16.9908 23.6927 17.7585 23.6075 18.455 23.3193L17.7853 21.7035C17.3945 21.8645 16.8928 21.945 15.9688 21.9742L16.0248 23.7242ZM19.8375 19.6513C19.6468 20.1115 19.3673 20.5296 19.015 20.8817C18.6627 21.2338 18.2444 21.5131 17.7842 21.7035L18.455 23.3193C19.8124 22.7569 20.8909 21.6784 21.4533 20.321L19.8375 19.6513ZM13.0673 7.875C14.612 7.875 15.7087 7.875 16.5615 7.95667C17.4015 8.03717 17.9148 8.18883 18.315 8.43383L19.2297 6.94167C18.5075 6.49833 17.6955 6.307 16.7272 6.21483C15.7728 6.12383 14.5782 6.125 13.0673 6.125V7.875ZM21.8757 14.9333C21.8757 13.4225 21.8757 12.2278 21.7858 11.2735C21.6937 10.3052 21.5012 9.49433 21.059 8.77217L19.5668 9.68567C19.8118 10.0858 19.9635 10.5992 20.044 11.4392C20.1257 12.2908 20.1257 13.3887 20.1257 14.9333H21.8757ZM18.315 8.43383C18.8252 8.74649 19.2542 9.17546 19.5668 9.68567L21.059 8.77217C20.6021 8.0266 19.9752 7.39858 19.2297 6.94167L18.315 8.43383ZM10.2673 6.125C8.75649 6.125 7.56182 6.125 6.60749 6.21483C5.63915 6.307 4.82715 6.4995 4.10499 6.94167L5.01965 8.43383C5.41982 8.18883 5.93315 8.03717 6.77315 7.95667C7.62482 7.875 8.72265 7.875 10.2673 7.875V6.125ZM3.20899 14.9333C3.20899 13.3887 3.20899 12.292 3.29065 11.4392C3.37115 10.5992 3.52282 10.0858 3.76782 9.68567L2.27565 8.771C1.83232 9.49317 1.64099 10.3052 1.54882 11.2735C1.45782 12.2278 1.45899 13.4225 1.45899 14.9333H3.20899ZM4.10499 6.94167C3.35942 7.39858 2.73256 8.02544 2.27565 8.771L3.76782 9.68567C4.08047 9.17546 4.50944 8.74649 5.01965 8.43383L4.10499 6.94167ZM11.1038 24.1383C10.8693 23.7417 10.664 23.394 10.4645 23.1187C10.2591 22.8178 9.99278 22.5634 9.68282 22.372L8.79149 23.8793C8.84515 23.9108 8.91982 23.9692 9.04815 24.1477C9.18815 24.3402 9.34682 24.6062 9.59649 25.0297L11.1038 24.1383ZM7.30982 23.7242C7.83015 23.7405 8.16149 23.7522 8.41465 23.7825C8.65265 23.8117 8.74249 23.8502 8.79149 23.8793L9.68165 22.3732C9.34332 22.1737 8.98865 22.0897 8.62582 22.0465C8.27815 22.0033 7.85465 21.9905 7.36582 21.9742L7.30982 23.7242ZM13.7382 25.0297C13.9878 24.6062 14.1465 24.3402 14.2865 24.1477C14.4148 23.9692 14.4895 23.9108 14.5432 23.8793L13.653 22.3732C13.343 22.5646 13.0767 22.819 12.8713 23.1198C12.6707 23.394 12.4653 23.7428 12.2308 24.1383L13.7382 25.0297ZM15.9688 21.9742C15.48 21.9905 15.0565 22.0033 14.7088 22.0453C14.3472 22.0897 13.9902 22.1748 13.653 22.3732L14.5432 23.8793C14.5922 23.8502 14.682 23.8117 14.92 23.7825C15.172 23.7522 15.5045 23.7405 16.0248 23.7242L15.9688 21.9742Z" fill="#8726B9"/>
<path d="M15.6049 3.20728H18.2299V1.45728H15.6049V3.20728ZM24.7924 9.76978V10.6448H26.5424V9.76978H24.7924ZM24.7924 10.6448C24.7924 11.6761 24.7924 12.4064 24.7527 12.9781C24.7142 13.5451 24.6407 13.8939 24.5264 14.1716L26.1422 14.8413C26.3604 14.3151 26.4537 13.7528 26.498 13.0983C26.5424 12.4519 26.5424 11.6516 26.5424 10.6448H24.7924ZM24.5264 14.1716C24.3505 14.5964 24.0926 14.9823 23.7675 15.3074C23.4424 15.6325 23.0565 15.8904 22.6317 16.0663L23.3014 17.6833C23.9383 17.4193 24.517 17.0325 25.0044 16.5448C25.4919 16.0572 25.8785 15.4783 26.1422 14.8413L24.5264 14.1716ZM18.2299 3.20728C19.6789 3.20728 20.7032 3.20844 21.5012 3.28544C22.284 3.36011 22.7554 3.50011 23.1205 3.72411L24.0352 2.23194C23.3492 1.81194 22.578 1.62994 21.6669 1.54361C20.7685 1.45728 19.645 1.45844 18.2299 1.45844V3.20728ZM26.5424 9.77094C26.5424 8.35578 26.5424 7.23344 26.4572 6.33394C26.3709 5.42278 26.1889 4.65161 25.7689 3.96561L24.2755 4.88028C24.5007 5.24544 24.6407 5.71678 24.7154 6.49961C24.7912 7.29644 24.7924 8.32194 24.7924 9.77094H26.5424ZM23.1205 3.72411C23.5912 4.01262 23.987 4.40957 24.2755 4.88028L25.7689 3.96561C25.3356 3.25886 24.7422 2.66476 24.0352 2.23194L23.1205 3.72528V3.72411ZM15.6049 1.45844C14.1897 1.45844 13.0674 1.45844 12.1679 1.54244C11.2567 1.62994 10.4855 1.81078 9.79953 2.23194L10.713 3.72528C11.0794 3.50011 11.5507 3.36011 12.3347 3.28544C13.1304 3.20961 14.1547 3.20728 15.6049 3.20728V1.45844ZM9.79953 2.23194C9.09278 2.66523 8.49868 3.25973 8.06586 3.96678L9.55803 4.88144C9.84655 4.41074 10.2423 4.01379 10.713 3.72528L9.8007 2.23078L9.79953 2.23194ZM9.0797 7.04678C9.13803 5.92678 9.28387 5.32828 9.55803 4.88144L8.06586 3.96678C7.55603 4.79861 7.39386 5.76111 7.33203 6.95578L9.0797 7.04678ZM21.0299 18.0671C21.9247 18.0368 22.6445 17.9574 23.3014 17.6856L22.6317 16.0686C22.2794 16.2144 21.822 16.2903 20.9715 16.3183L21.0299 18.0671Z" fill="#8726B9"/>
<path d="M7.5957 15.1667H7.60504M11.6674 15.1667H11.6779M15.7402 15.1667H15.7507" stroke="#8726B9" stroke-width="2" stroke-linecap="round" stroke-linejoin="round"/>
</svg>
