<svg width="33" height="32" viewBox="0 0 33 32" fill="none" xmlns="http://www.w3.org/2000/svg">
<path d="M16.8516 5.89999C17.6016 4.59999 19.2016 4.14999 20.5016 4.84999C21.8016 5.54999 22.2516 7.19999 21.5516 8.49999" stroke="black" stroke-miterlimit="10" stroke-linecap="round" stroke-linejoin="round"/>
<path d="M20.5 21.55C21.8 20.8 22.25 19.2 21.55 17.9" stroke="black" stroke-miterlimit="10" stroke-linecap="round" stroke-linejoin="round"/>
<path d="M23.1504 10C24.9504 10 26.4004 11.45 26.4004 13.25C26.4004 15.05 24.9504 16.5 23.1504 16.5" stroke="black" stroke-miterlimit="10" stroke-linecap="round" stroke-linejoin="round"/>
<path d="M12.5016 21.55C11.2016 20.8 10.7516 19.2 11.4516 17.9" stroke="black" stroke-miterlimit="10" stroke-linecap="round" stroke-linejoin="round"/>
<path d="M16.1516 5.89999C15.4016 4.59999 13.8016 4.14999 12.5016 4.84999C11.2016 5.59999 10.7516 7.19999 11.4516 8.49999" stroke="black" stroke-miterlimit="10" stroke-linecap="round" stroke-linejoin="round"/>
<path d="M9.85156 16.45C8.05156 16.45 6.60156 15 6.60156 13.2C6.60156 11.4 8.05156 9.95 9.85156 9.95" stroke="black" stroke-miterlimit="10" stroke-linecap="round" stroke-linejoin="round"/>
<path d="M13.8008 21.9C12.7008 21.9 11.7508 21.25 11.3508 20.3C11.2508 20.3 11.2008 20.3 11.1008 20.3C9.60078 20.3 8.40078 19.1 8.40078 17.6C8.40078 17.1 8.55078 16.65 8.75078 16.25C7.45078 15.8 6.55078 14.6 6.55078 13.2C6.55078 11.8 7.45078 10.55 8.75078 10.15C8.50078 9.75 8.40078 9.3 8.40078 8.8C8.40078 7.3 9.60078 6.1 11.1008 6.1H11.3508C11.7508 5.15 12.7008 4.5 13.8008 4.5C15.3008 4.5 16.4508 5.7 16.5008 7.2C16.5008 5.7 17.7008 4.5 19.2008 4.5C20.3008 4.5 21.2508 5.15 21.6508 6.1H21.9008C23.4008 6.1 24.6008 7.3 24.6008 8.8C24.6008 9.3 24.4508 9.75 24.2508 10.15C25.5508 10.6 26.4508 11.8 26.4508 13.2C26.4508 14.6 25.5508 15.85 24.2508 16.25C24.5008 16.65 24.6008 17.1 24.6008 17.6C24.6008 19.1 23.4008 20.3 21.9008 20.3C21.8008 20.3 21.7508 20.3 21.6508 20.3C21.2508 21.25 20.3008 21.9 19.2008 21.9" stroke="black" stroke-miterlimit="10" stroke-linecap="round" stroke-linejoin="round"/>
<path d="M13.7516 27.25H19.2016C19.8516 27.25 20.3516 27.75 20.3516 28.4C20.3516 29.05 19.8516 29.55 19.2016 29.55H13.7516C13.1016 29.55 12.6016 29.05 12.6016 28.4" stroke="black" stroke-miterlimit="10" stroke-linecap="round" stroke-linejoin="round"/>
<path d="M19.2516 27.25H13.7516C13.1016 27.25 12.6016 26.75 12.6016 26.1C12.6016 25.45 13.1016 24.95 13.7516 24.95H19.2016C19.8516 24.95 20.3516 25.45 20.3516 26.1" stroke="black" stroke-miterlimit="10" stroke-linecap="round" stroke-linejoin="round"/>
<path d="M17.9508 31.05C17.5508 31.35 17.0508 31.5 16.5008 31.5C15.9508 31.5 15.5008 31.35 15.0508 31.05" stroke="black" stroke-miterlimit="10" stroke-linecap="round" stroke-linejoin="round"/>
<path d="M15.5508 22.9V13.2C15.5508 12.5 15.0008 11.95 14.3008 11.95C13.6008 11.95 13.0508 12.5 13.0508 13.2C13.0508 13.9 13.6008 14.45 14.3008 14.45H18.7508C19.4508 14.45 20.0008 13.9 20.0008 13.2C20.0008 12.5 19.4508 11.95 18.7508 11.95C18.0508 11.95 17.5008 12.5 17.5008 13.2V22.9" stroke="black" stroke-miterlimit="10" stroke-linecap="round" stroke-linejoin="round"/>
<path d="M16.5 7.2V9.4" stroke="black" stroke-width="1.5" stroke-miterlimit="10" stroke-linecap="round" stroke-linejoin="round"/>
<path d="M28.1016 13.2H29.2016" stroke="black" stroke-width="1.5" stroke-miterlimit="10" stroke-linecap="round" stroke-linejoin="round"/>
<path d="M3.80078 13.2H4.90078" stroke="black" stroke-width="1.5" stroke-miterlimit="10" stroke-linecap="round" stroke-linejoin="round"/>
<path d="M16.5 1.5V2.65" stroke="black" stroke-width="1.5" stroke-miterlimit="10" stroke-linecap="round" stroke-linejoin="round"/>
<path d="M24.6992 21.4L25.4992 22.2" stroke="black" stroke-width="1.5" stroke-miterlimit="10" stroke-linecap="round" stroke-linejoin="round"/>
<path d="M7.5 4.25L8.3 5.05" stroke="black" stroke-width="1.5" stroke-miterlimit="10" stroke-linecap="round" stroke-linejoin="round"/>
<path d="M8.3 21.4L7.5 22.2" stroke="black" stroke-width="1.5" stroke-miterlimit="10" stroke-linecap="round" stroke-linejoin="round"/>
<path d="M25.4992 4.25L24.6992 5.05" stroke="black" stroke-width="1.5" stroke-miterlimit="10" stroke-linecap="round" stroke-linejoin="round"/>
</svg>
