<svg width="33" height="32" viewBox="0 0 33 32" fill="none" xmlns="http://www.w3.org/2000/svg">
<g clip-path="url(#clip0_487_2245)">
<path d="M16.5 7.81248C14.5184 7.81248 12.9062 9.42461 12.9062 11.4062C12.9062 13.3879 14.5184 15 16.5 15C17.1933 15 17.8666 14.8018 18.4469 14.4268C18.6643 14.2863 18.7267 13.9961 18.5862 13.7787C18.4457 13.5612 18.1556 13.4989 17.9381 13.6394C17.5097 13.9162 17.0124 14.0625 16.4999 14.0625C15.0352 14.0625 13.8437 12.8709 13.8437 11.4062C13.8437 9.94155 15.0354 8.74998 16.5 8.74998C17.9646 8.74998 19.1562 9.94155 19.1562 11.4062C19.1562 11.6601 19.1208 11.9097 19.0508 12.148C18.9779 12.3964 19.1201 12.6569 19.3686 12.7298C19.6168 12.8027 19.8774 12.6604 19.9504 12.412C20.0455 12.0879 20.0938 11.7495 20.0938 11.4063C20.0938 9.42461 18.4816 7.81248 16.5 7.81248Z" fill="black"/>
<path d="M25.2827 11.4064C25.3552 11.3049 25.4254 11.2034 25.4935 11.1016C26.8778 9.03031 27.1917 7.11312 26.3776 5.7035C26.2713 5.519 26.1457 5.34475 26.0023 5.18275C26.0534 5.02844 26.0811 4.86363 26.0811 4.69238C26.0811 3.83081 25.3802 3.12987 24.5186 3.12987C23.9732 3.12987 23.4921 3.41081 23.2125 3.83562C22.5058 3.73 21.724 3.72125 20.8926 3.80312C20.8405 3.68862 20.7872 3.57588 20.7325 3.46506C19.631 1.23056 18.1277 0 16.4995 0C14.8713 0 13.368 1.23056 12.2665 3.465C12.2123 3.57481 12.1595 3.6865 12.1079 3.79988C11.9839 3.78787 11.8608 3.77781 11.7386 3.76975C9.25247 3.60625 7.43534 4.29306 6.62134 5.70312C5.80728 7.11319 6.12134 9.03037 7.50566 11.1015C7.57366 11.2032 7.64397 11.3049 7.71641 11.4062C6.66703 12.8766 6.13291 14.3251 6.18466 15.5592C5.74766 15.8366 5.45703 16.3247 5.45703 16.8795C5.45703 17.7411 6.15797 18.442 7.01953 18.442C7.28147 18.442 7.52859 18.3772 7.74566 18.2628C8.57878 18.7912 9.71716 19.0643 11.058 19.0643C11.3956 19.0643 11.7461 19.0469 12.1078 19.012C12.1595 19.1256 12.2124 19.2375 12.2667 19.3475C13.368 21.5819 14.8713 22.8125 16.4995 22.8125C18.1276 22.8125 19.631 21.5819 20.7325 19.3475C20.7866 19.2377 20.8395 19.126 20.891 19.0126C21.015 19.0246 21.1382 19.0347 21.2603 19.0427C21.501 19.0586 21.7352 19.0664 21.9629 19.0664C24.0884 19.0664 25.6423 18.3829 26.3776 17.1094C27.1917 15.6993 26.8776 13.7821 25.4933 11.711C25.4253 11.6093 25.3551 11.5077 25.2827 11.4064ZM24.5185 4.06738C24.8632 4.06738 25.1435 4.34775 25.1435 4.69238C25.1435 5.037 24.8632 5.31738 24.5185 5.31738C24.1739 5.31738 23.8935 5.037 23.8935 4.69238C23.8935 4.34775 24.1739 4.06738 24.5185 4.06738ZM22.957 4.74594C22.9853 5.58281 23.6749 6.25488 24.5185 6.25488C24.8576 6.25488 25.1717 6.14631 25.4281 5.96212C25.478 6.02981 25.5239 6.09975 25.5655 6.17188C26.1918 7.25631 25.8894 8.822 24.714 10.5806C24.7032 10.5966 24.6925 10.6126 24.6816 10.6287C23.9671 9.77013 23.1032 8.93656 22.1245 8.15862C21.94 6.92137 21.6498 5.75588 21.2633 4.70738C21.8653 4.66469 22.4339 4.6765 22.957 4.74594ZM18.9608 15.6696C18.1532 16.1358 17.3239 16.5449 16.4955 16.8888C15.6749 16.5468 14.8501 16.1385 14.038 15.6696C13.2247 15.2 12.4575 14.6889 11.75 14.1484C11.6355 13.2654 11.5765 12.3454 11.5765 11.4062C11.5765 10.4683 11.6354 9.54969 11.7495 8.66781C12.4616 8.12244 13.2306 7.60894 14.0382 7.14281C14.8522 6.67294 15.6802 6.26469 16.5021 5.923C17.3232 6.26519 18.1485 6.67362 18.961 7.14275C19.7743 7.61237 20.5415 8.12344 21.249 8.664C21.3635 9.547 21.4225 10.4669 21.4225 11.4061C21.4225 12.3454 21.3635 13.2653 21.249 14.1484C20.5415 14.6891 19.7743 15.2001 18.9608 15.6696ZM21.0317 15.4659C20.8492 16.3689 20.6048 17.219 20.3032 17.9944C19.48 17.8679 18.6208 17.6541 17.7467 17.3602C18.3135 17.0943 18.8767 16.8007 19.4295 16.4816C19.985 16.1609 20.5203 15.8212 21.0317 15.4659ZM11.9673 15.4659C12.4786 15.8212 13.0138 16.1609 13.5693 16.4816C14.123 16.8012 14.6831 17.0941 15.2447 17.3586C14.3722 17.6516 13.5135 17.8664 12.6954 17.9932C12.3939 17.2181 12.1498 16.3685 11.9673 15.4659ZM10.7177 13.3014C10.027 12.692 9.41309 12.0555 8.89259 11.4067C9.41159 10.7616 10.0271 10.1251 10.7173 9.51594C10.6655 10.1348 10.639 10.7666 10.639 11.4062C10.639 12.0476 10.6656 12.681 10.7177 13.3014ZM11.9669 7.34881C12.1495 6.445 12.3939 5.59413 12.6958 4.81819C13.519 4.94469 14.3783 5.1585 15.2526 5.45244C14.6881 5.71694 14.1252 6.01025 13.5696 6.33094C13.0167 6.65 12.4807 6.99081 11.9669 7.34881ZM17.7522 5.45288C18.6302 5.15769 19.4889 4.94369 20.3028 4.81719C20.6047 5.59281 20.849 6.44319 21.0316 7.34656C20.5203 6.99125 19.9851 6.65156 19.4297 6.33094C18.8753 6.01087 18.3145 5.71763 17.7522 5.45288ZM22.2813 9.51112C22.9722 10.1207 23.5863 10.7574 24.1069 11.4064C23.5862 12.0554 22.9722 12.692 22.2813 13.3016C22.3333 12.6811 22.3599 12.0476 22.3599 11.4062C22.36 10.7649 22.3334 10.1315 22.2813 9.51112ZM13.1074 3.8795C14.0427 1.98231 15.2473 0.9375 16.4995 0.9375C17.7516 0.9375 18.9563 1.98231 19.8915 3.8795C19.9008 3.89831 19.91 3.91725 19.9193 3.93619C18.8273 4.12563 17.6722 4.45556 16.5053 4.91337C15.3403 4.4535 14.1845 4.12138 13.0818 3.93156C13.0904 3.91419 13.0989 3.89681 13.1074 3.8795ZM7.43328 6.17188C7.99309 5.20231 9.25697 4.68331 11.027 4.68331C11.2367 4.68331 11.4537 4.69063 11.6772 4.70531C11.6965 4.70656 11.7158 4.70794 11.735 4.70925C11.3483 5.75844 11.0582 6.92475 10.8739 8.16281C9.89766 8.94 9.03034 9.77494 8.31778 10.6291C8.30684 10.6129 8.29597 10.5968 8.28509 10.5806C7.10972 8.822 6.80722 7.25631 7.43328 6.17188ZM7.01947 17.5046C6.67484 17.5046 6.39447 17.2242 6.39447 16.8796C6.39447 16.5349 6.67484 16.2546 7.01947 16.2546C7.36409 16.2546 7.64447 16.5349 7.64447 16.8796C7.64447 17.2242 7.36409 17.5046 7.01947 17.5046ZM8.41934 17.5734C8.52341 17.3642 8.58203 17.1286 8.58203 16.8795C8.58203 16.0512 7.93416 15.3714 7.11853 15.3201C7.13672 14.3995 7.55072 13.3166 8.31728 12.1836C9.03178 13.0423 9.89572 13.8759 10.8745 14.6538C11.0588 15.8903 11.3487 17.0549 11.735 18.1029C10.3706 18.2004 9.22578 18.0176 8.41934 17.5734ZM19.8916 18.933C18.9563 20.8302 17.7517 21.875 16.4995 21.875C15.2473 21.875 14.0426 20.8302 13.1074 18.933C13.0987 18.9153 13.09 18.8976 13.0814 18.8798C14.1773 18.6899 15.3339 18.3564 16.495 17.8997C17.6596 18.3592 18.8149 18.6912 19.9171 18.8809C19.9086 18.8983 19.9001 18.9157 19.8916 18.933ZM25.5657 16.6406C24.9396 17.7251 23.4322 18.246 21.3218 18.1073C21.3025 18.106 21.2832 18.1046 21.264 18.1033C21.6502 17.0553 21.9402 15.8905 22.1245 14.654C23.1033 13.8761 23.9671 13.0426 24.6817 12.184C24.6925 12.2 24.7032 12.2159 24.7139 12.2319C25.8893 13.9905 26.1918 15.5562 25.5657 16.6406Z" fill="black"/>
<path d="M31.3437 24.9527V23.8804C31.3437 23.0046 30.6873 22.2702 29.8172 22.1722C28.8759 22.0653 27.9169 22.0111 26.9668 22.0111C23.383 22.0111 19.7871 22.7945 16.5694 24.276C16.5252 24.2962 16.4746 24.2962 16.4316 24.2765C13.2127 22.7944 9.61692 22.0111 6.03305 22.0111C5.08293 22.0111 4.12393 22.0653 3.18306 22.1721C2.31262 22.2702 1.65619 23.0046 1.65619 23.8804V24.9527C0.973124 25.1888 0.5 25.8354 0.5 26.5773V28.2023C0.5 28.6293 0.6905 29.0281 1.02262 29.2966C1.354 29.5644 1.78287 29.6667 2.19918 29.5774C6.64349 28.6214 11.1858 29.3349 14.9893 31.5863C15.4553 31.8622 15.9775 32.0001 16.5 32C17.0223 32 17.5448 31.8621 18.0106 31.5863C21.8141 29.3349 26.3564 28.6215 30.8009 29.5775C31.2173 29.6668 31.6459 29.5644 31.9773 29.2966C32.3094 29.0282 32.4999 28.6293 32.4999 28.2023V26.5773C32.4999 25.8355 32.0269 25.1888 31.3437 24.9527ZM31.5624 28.2023C31.5624 28.3448 31.4989 28.4779 31.388 28.5674C31.2779 28.6564 31.1357 28.6904 30.9979 28.6609C26.3221 27.6551 21.5403 28.4076 17.533 30.7795C16.8958 31.1567 16.1041 31.1567 15.4668 30.7795C11.4597 28.4076 6.6778 27.6551 2.00225 28.6608C1.86431 28.6904 1.722 28.6564 1.61187 28.5674C1.50106 28.4778 1.43744 28.3447 1.43744 28.2022V26.5772C1.43744 26.1996 1.70687 25.8763 2.07806 25.8083C6.7903 24.9458 11.6817 25.6593 15.8504 27.8171C16.257 28.0279 16.7427 28.0279 17.1492 27.8172C19.1318 26.7908 21.2705 26.0873 23.5059 25.7261C23.7615 25.6849 23.9352 25.4442 23.8939 25.1886C23.8526 24.9331 23.6124 24.7593 23.3564 24.8006C21.0227 25.1776 18.7893 25.9124 16.718 26.9848C16.5815 27.0555 16.4185 27.0555 16.2817 26.9846C12.1309 24.836 7.29642 24.0588 2.59375 24.7716V23.8803C2.59375 23.4821 2.89225 23.1483 3.28849 23.1036C4.19474 23.0006 5.11818 22.9485 6.03311 22.9485C9.48254 22.9485 12.9428 23.7021 16.0407 25.1284C16.3327 25.2619 16.6675 25.2619 16.9604 25.1279C20.0572 23.7021 23.5174 22.9485 26.9669 22.9485C27.8818 22.9485 28.8052 23.0006 29.7119 23.1036C30.1077 23.1482 30.4063 23.4821 30.4063 23.8803V24.7715C28.8035 24.5279 27.1819 24.4546 25.5762 24.5537C25.3178 24.5696 25.1213 24.792 25.1372 25.0504C25.1531 25.3088 25.3761 25.5055 25.6339 25.4894C27.393 25.3809 29.1721 25.4881 30.9218 25.8083C31.2931 25.8762 31.5625 26.1996 31.5625 26.5771V28.2023H31.5624Z" fill="black"/>
</g>
<defs>
<clipPath id="clip0_487_2245">
<rect width="32" height="32" fill="white" transform="translate(0.5)"/>
</clipPath>
</defs>
</svg>
