<svg width="105" height="24" viewBox="0 0 105 24" fill="none" xmlns="http://www.w3.org/2000/svg">
<path d="M0.929688 1.34375H3.68359L6.92969 10.0039C7.14062 10.5742 7.31641 11.0742 7.45703 11.5039C7.60547 11.9336 7.73438 12.3359 7.84375 12.7109C8.11719 11.8047 8.40234 10.918 8.69922 10.0508C8.73828 9.94141 8.76562 9.86719 8.78125 9.82812L12.2266 0.664062L15.8594 10.0039C16.0312 10.457 16.1914 10.9102 16.3398 11.3633C16.4961 11.8164 16.6406 12.2734 16.7734 12.7344C16.8516 12.3828 16.957 11.9961 17.0898 11.5742C17.2227 11.1523 17.3945 10.6523 17.6055 10.0742L20.8281 1.34375H23.6055L16.9609 19.168L13.0469 9.38281C12.875 8.94531 12.7188 8.52734 12.5781 8.12891C12.4375 7.72266 12.3125 7.33984 12.2031 6.98047C12.0703 7.44141 11.9375 7.875 11.8047 8.28125C11.6719 8.67969 11.5352 9.0625 11.3945 9.42969L7.55078 19.168L0.929688 1.34375ZM25.082 2.58594C25.082 2.15625 25.2383 1.78516 25.5508 1.47266C25.8711 1.16016 26.25 1.00391 26.6875 1.00391C27.1406 1.00391 27.5156 1.15625 27.8125 1.46094C28.1172 1.75781 28.2695 2.13281 28.2695 2.58594C28.2695 3.03906 28.1172 3.42187 27.8125 3.73438C27.5078 4.03906 27.1328 4.19141 26.6875 4.19141C26.25 4.19141 25.8711 4.03516 25.5508 3.72266C25.2383 3.40234 25.082 3.02344 25.082 2.58594ZM25.4219 18.5V7.39062H27.9648V18.5H25.4219ZM30.332 16.4844L32.4414 15.3359C32.5977 15.8906 32.8867 16.3125 33.3086 16.6016C33.7305 16.8906 34.2734 17.0352 34.9375 17.0352C35.5078 17.0352 35.9531 16.9062 36.2734 16.6484C36.6016 16.3828 36.7656 16.0234 36.7656 15.5703C36.7656 14.9688 36.1875 14.4531 35.0312 14.0234C34.6406 13.8828 34.3398 13.7656 34.1289 13.6719C32.9414 13.1797 32.1094 12.6797 31.6328 12.1719C31.1641 11.6641 30.9297 11.0469 30.9297 10.3203C30.9297 9.32812 31.3164 8.52344 32.0898 7.90625C32.8711 7.28906 33.9023 6.98047 35.1836 6.98047C36.043 6.98047 36.7773 7.14062 37.3867 7.46094C38.0039 7.77344 38.4531 8.22266 38.7344 8.80859L36.9297 10.0508C36.7969 9.69922 36.5625 9.42188 36.2266 9.21875C35.8984 9.00781 35.5156 8.90234 35.0781 8.90234C34.5938 8.90234 34.2031 9.01953 33.9062 9.25391C33.6172 9.48047 33.4727 9.78516 33.4727 10.168C33.4727 10.7461 34.1289 11.2734 35.4414 11.75C35.8555 11.8984 36.1758 12.0195 36.4023 12.1133C37.4258 12.5195 38.1562 12.9805 38.5938 13.4961C39.0391 14.0039 39.2617 14.6406 39.2617 15.4062C39.2617 16.5156 38.8594 17.3867 38.0547 18.0195C37.25 18.6445 36.1406 18.957 34.7266 18.957C33.6406 18.957 32.7383 18.7539 32.0195 18.3477C31.3008 17.9414 30.7383 17.3203 30.332 16.4844ZM49.8086 12.9102C49.8086 11.7617 49.5391 10.8672 49 10.2266C48.4688 9.58594 47.7227 9.26562 46.7617 9.26562C45.8008 9.26562 45.043 9.59766 44.4883 10.2617C43.9414 10.918 43.668 11.832 43.668 13.0039C43.668 14.1836 43.9336 15.0938 44.4648 15.7344C44.9961 16.375 45.7461 16.6953 46.7148 16.6953C47.6367 16.6953 48.3828 16.3516 48.9531 15.6641C49.5234 14.9688 49.8086 14.0508 49.8086 12.9102ZM49.7383 0.335938H52.2812V18.5H49.7383V17.0586C49.2852 17.6992 48.7539 18.1758 48.1445 18.4883C47.543 18.8008 46.8516 18.957 46.0703 18.957C44.5 18.957 43.2617 18.4219 42.3555 17.3516C41.457 16.2734 41.0078 14.8008 41.0078 12.9336C41.0078 11.1602 41.4688 9.73047 42.3906 8.64453C43.3125 7.55078 44.5156 7.00391 46 7.00391C46.9062 7.00391 47.6797 7.19531 48.3203 7.57812C48.9688 7.95312 49.4414 8.49609 49.7383 9.20703V0.335938ZM64.5273 12.9805C64.5273 11.9492 64.1953 11.0781 63.5312 10.3672C62.8672 9.64844 62.0547 9.28906 61.0938 9.28906C60.1406 9.28906 59.3281 9.64844 58.6562 10.3672C57.9922 11.0781 57.6602 11.9492 57.6602 12.9805C57.6602 14.0117 57.9922 14.8867 58.6562 15.6055C59.3281 16.3164 60.1406 16.6719 61.0938 16.6719C62.0469 16.6719 62.8555 16.3164 63.5195 15.6055C64.1914 14.8867 64.5273 14.0117 64.5273 12.9805ZM54.9766 12.957C54.9766 12.1445 55.1289 11.3789 55.4336 10.6602C55.7461 9.93359 56.1914 9.28906 56.7695 8.72656C57.3398 8.17188 57.9961 7.74609 58.7383 7.44922C59.4805 7.15234 60.2578 7.00391 61.0703 7.00391C61.9062 7.00391 62.6914 7.15234 63.4258 7.44922C64.168 7.74609 64.832 8.18359 65.418 8.76172C66.0039 9.33203 66.4492 9.97656 66.7539 10.6953C67.0586 11.4141 67.2109 12.168 67.2109 12.957C67.2109 13.7773 67.0586 14.5469 66.7539 15.2656C66.457 15.9844 66.0195 16.6211 65.4414 17.1758C64.832 17.7617 64.1562 18.2031 63.4141 18.5C62.6719 18.8047 61.8906 18.957 61.0703 18.957C60.2656 18.957 59.4922 18.8047 58.75 18.5C58.0078 18.2031 57.3477 17.7695 56.7695 17.1992C56.1836 16.6211 55.7383 15.9727 55.4336 15.2539C55.1289 14.5352 54.9766 13.7695 54.9766 12.957ZM78.2031 10.5547C77.8125 10.125 77.3555 9.79688 76.832 9.57031C76.3164 9.34375 75.7578 9.23047 75.1562 9.23047C74.1172 9.23047 73.2852 9.56641 72.6602 10.2383C72.0352 10.9102 71.7227 11.8008 71.7227 12.9102C71.7227 14.0664 72.0352 14.9766 72.6602 15.6406C73.293 16.2969 74.1641 16.625 75.2734 16.625C75.8906 16.625 76.4414 16.5117 76.9258 16.2852C77.4102 16.0508 77.8359 15.6992 78.2031 15.2305V18.1602C77.7344 18.4258 77.2305 18.625 76.6914 18.7578C76.1602 18.8906 75.5938 18.957 74.9922 18.957C73.25 18.957 71.8281 18.4023 70.7266 17.293C69.6328 16.1836 69.0859 14.7461 69.0859 12.9805C69.0859 11.1914 69.6523 9.75 70.7852 8.65625C71.9258 7.55469 73.4141 7.00391 75.25 7.00391C75.8281 7.00391 76.3594 7.0625 76.8438 7.17969C77.3281 7.28906 77.7812 7.46094 78.2031 7.69531V10.5547ZM80.582 2.58594C80.582 2.15625 80.7383 1.78516 81.0508 1.47266C81.3711 1.16016 81.75 1.00391 82.1875 1.00391C82.6406 1.00391 83.0156 1.15625 83.3125 1.46094C83.6172 1.75781 83.7695 2.13281 83.7695 2.58594C83.7695 3.03906 83.6172 3.42187 83.3125 3.73438C83.0078 4.03906 82.6328 4.19141 82.1875 4.19141C81.75 4.19141 81.3711 4.03516 81.0508 3.72266C80.7383 3.40234 80.582 3.02344 80.582 2.58594ZM80.9219 18.5V7.39062H83.4648V18.5H80.9219ZM87.707 18.5V9.61719H85.7617V7.39062H87.707V3.18359H90.25V7.39062H92.1953V9.61719H90.25V18.5H87.707ZM96.3086 23.7266H93.6953L96.7422 17.5391L92.6641 7.39062H95.4766L97.5156 13.1445C97.6328 13.4961 97.7344 13.8555 97.8203 14.2227C97.9141 14.582 97.9883 14.9492 98.043 15.3242C98.1445 14.9336 98.3867 14.3125 98.7695 13.4609L98.8281 13.3203L101.57 7.39062H104.324L96.3086 23.7266Z" fill="#64108F"/>
</svg>
