<svg width="37" height="37" viewBox="0 0 21 37"
     fill="none" xmlns="http://www.w3.org/2000/svg">
<path d="M7.96973 15.6537C7.96973 16.1253 7.58745 16.5076 7.11588 16.5076C6.64431 16.5076 6.26203 16.1253 6.26203 15.6537L6.26204 0.853721C6.26204 0.382154 6.64432 -0.000124094 7.11588 -0.000124052C7.58745 -0.000124011 7.96973 0.382154 7.96973 0.853722L7.96973 15.6537Z" fill="#D586FD"/>
<path fill-rule="evenodd" clip-rule="evenodd" d="M6.54665 0.853721L6.54665 15.6537C6.54665 15.9681 6.8015 16.223 7.11588 16.223C7.43026 16.223 7.68511 15.9681 7.68511 15.6537L7.68511 0.853722C7.68511 0.539344 7.43026 0.284491 7.11588 0.284491C6.8015 0.28449 6.54665 0.539344 6.54665 0.853721ZM7.11588 16.5076C7.58745 16.5076 7.96973 16.1253 7.96973 15.6537L7.96973 0.853722C7.96973 0.382156 7.58745 -0.000124011 7.11588 -0.000124052C6.64432 -0.000124094 6.26204 0.382156 6.26204 0.853721L6.26203 15.6537C6.26203 16.1253 6.64431 16.5076 7.11588 16.5076Z" fill="#D586FD"/>
<path d="M14.2305 15.6537C14.2305 16.1253 13.8482 16.5076 13.3766 16.5076C12.9051 16.5076 12.5228 16.1253 12.5228 15.6537L12.5228 0.853721C12.5228 0.382154 12.9051 -0.000124094 13.3766 -0.000124052C13.8482 -0.000124011 14.2305 0.382154 14.2305 0.853722L14.2305 15.6537Z" fill="#D586FD"/>
<path fill-rule="evenodd" clip-rule="evenodd" d="M12.8074 0.853721L12.8074 15.6537C12.8074 15.9681 13.0622 16.223 13.3766 16.223C13.691 16.223 13.9459 15.9681 13.9459 15.6537L13.9459 0.853722C13.9459 0.539344 13.691 0.284491 13.3766 0.284491C13.0622 0.28449 12.8074 0.539344 12.8074 0.853721ZM13.3766 16.5076C13.8482 16.5076 14.2305 16.1253 14.2305 15.6537L14.2305 0.853722C14.2305 0.382156 13.8482 -0.000124011 13.3766 -0.000124052C12.9051 -0.000124094 12.5228 0.382156 12.5228 0.853721L12.5228 15.6537C12.5228 16.1253 12.9051 16.5076 13.3766 16.5076Z" fill="#D586FD"/>
<path fill-rule="evenodd" clip-rule="evenodd" d="M9.99765 6.83308C12.2882 6.79128 14.5694 7.32838 16.44 8.40428C18.3057 9.47742 19.7439 11.0848 20.2755 13.0499C20.8183 15.0558 20.3194 17.0864 19.0305 18.7304C17.7743 20.3327 15.7805 21.5882 13.597 22.171C13.1414 22.2926 12.6735 22.0218 12.5519 21.5662C12.4303 21.1106 12.7011 20.6426 13.1567 20.521C15.0288 20.0214 16.687 18.9518 17.6866 17.6768C18.6782 16.412 19.015 14.9294 18.6272 13.4959C18.2404 12.0663 17.1608 10.7889 15.5886 9.88456C14.0155 8.97977 12.0456 8.50366 10.0288 8.54046C8.01202 8.57726 6.07854 9.12458 4.57176 10.0857C3.0657 11.0463 2.07751 12.3623 1.79276 13.8056C1.50737 15.2521 1.94951 16.7194 3.02877 17.9451C4.14535 19.2132 5.43964 20.0917 7.30374 20.5132C7.76369 20.6172 8.05225 21.0743 7.94826 21.5343C7.84428 21.9942 7.38712 22.2828 6.92717 22.1788C4.67007 21.6685 3.07098 20.5771 1.74714 19.0736C0.364565 17.5034 -0.28401 15.5096 0.117402 13.4751C0.512323 11.4734 1.8501 9.79625 3.65343 8.64597C5.45876 7.49443 7.7079 6.87486 9.99765 6.83308Z" fill="#8726B9"/>
<path fill-rule="evenodd" clip-rule="evenodd" d="M10.4945 30.1669C8.20424 30.2083 5.92313 29.6769 4.05266 28.6125C2.18704 27.5508 0.748574 25.9603 0.216725 24.0154C-0.326232 22.0298 0.172959 20.02 1.46207 18.3931C2.69388 16.8385 4.6727 15.4155 6.89488 14.8287C7.35053 14.7084 7.81836 14.9768 7.9398 15.4283C8.06124 15.8798 7.79031 16.3433 7.33467 16.4636C5.50135 16.9478 3.82916 18.1457 2.80522 19.438C1.81379 20.6892 1.47733 22.1554 1.86495 23.5729C2.25156 24.9867 3.33083 26.2505 4.90315 27.1453C6.47629 28.0405 8.44636 28.5116 10.4634 28.4752C12.4804 28.4388 14.4141 27.8972 15.9209 26.9462C17.4271 25.9957 18.4149 24.6938 18.6995 23.2666C18.9847 21.8363 18.5429 20.3852 17.4638 19.1726C16.3148 17.8815 15.0143 16.8799 13.1881 16.4714C12.7282 16.3685 12.4395 15.9156 12.5433 15.4599C12.6472 15.0041 13.1042 14.718 13.5642 14.8209C15.8592 15.3343 17.4532 16.6025 18.7446 18.0536C20.1274 19.6073 20.7763 21.5806 20.3747 23.5945C19.9797 25.5757 18.6415 27.2353 16.8383 28.3733C15.033 29.5127 12.784 30.1256 10.4945 30.1669Z" fill="#D586FD"/>
<path d="M12.5225 21.346C12.5225 20.8745 12.9047 20.4922 13.3763 20.4922C13.8479 20.4922 14.2302 20.8745 14.2302 21.346L14.2302 36.146C14.2302 36.6176 13.8479 36.9999 13.3763 36.9999C12.9047 36.9999 12.5225 36.6176 12.5225 36.146L12.5225 21.346Z" fill="#8726B9"/>
<path d="M6.26172 21.346C6.26172 20.8745 6.644 20.4922 7.11556 20.4922C7.58713 20.4922 7.96941 20.8745 7.96941 21.346L7.96941 36.146C7.96941 36.6176 7.58713 36.9999 7.11556 36.9999C6.644 36.9999 6.26172 36.6176 6.26172 36.146L6.26172 21.346Z" fill="#8726B9"/>
</svg>
