<svg width="60" height="60" viewBox="0 0 60 60" fill="none" xmlns="http://www.w3.org/2000/svg">
<path d="M5 34.3787C5.69444 34.3787 6.18056 34.101 6.45833 33.5454C6.73611 32.9899 6.73611 32.4343 6.45833 31.8787C6.18056 31.3232 5.69444 31.0454 5 31.0454C4.30556 31.0454 3.81944 31.3232 3.54167 31.8787C3.26389 32.4343 3.26389 32.9899 3.54167 33.5454C3.81944 34.101 4.30556 34.3787 5 34.3787ZM43.3594 32.8683C43.1858 32.6426 42.8516 32.2086 42.3568 31.5662C41.862 30.9239 41.5017 30.4551 41.276 30.16C41.0503 29.8649 40.7205 29.4395 40.2865 28.884C39.8524 28.3284 39.4835 27.8683 39.1797 27.5037C38.8759 27.1392 38.5243 26.7312 38.125 26.2798C37.7257 25.8284 37.3351 25.403 36.9531 25.0037L33.6979 28.6496C32.2569 30.2815 30.447 31.0801 28.2682 31.0454C26.0894 31.0107 24.3056 30.16 22.9167 28.4933C21.9271 27.2954 21.4366 25.9239 21.4453 24.3787C21.454 22.8336 21.9618 21.4708 22.9688 20.2902L27.5781 14.9256C27.1962 14.7346 26.7535 14.5914 26.25 14.4959C25.7465 14.4004 25.3342 14.3484 25.013 14.3397C24.6918 14.331 24.2014 14.3353 23.5417 14.3527C22.8819 14.3701 22.4566 14.3787 22.2656 14.3787C20.6684 14.3787 19.2969 14.9517 18.151 16.0975L14.0365 20.2121H10V34.3787C10.0868 34.3787 10.2691 34.3744 10.5469 34.3657C10.8247 34.357 11.0156 34.357 11.1198 34.3657C11.224 34.3744 11.3932 34.3918 11.6276 34.4178C11.862 34.4438 12.0399 34.4829 12.1615 34.535C12.283 34.5871 12.4349 34.6609 12.6172 34.7563C12.7995 34.8518 12.9601 34.969 13.099 35.1079L20.8333 42.7121C22.8299 44.6392 24.8003 45.6027 26.7448 45.6027C28.099 45.6027 29.184 45.1947 30 44.3787C30.9896 44.726 31.9661 44.6565 32.9297 44.1704C33.8932 43.6843 34.5226 42.9465 34.8177 41.9569C36.1024 42.061 37.2049 41.6791 38.125 40.811C38.4722 40.4985 38.7847 40.1036 39.0625 39.6261C39.3403 39.1487 39.4618 38.7103 39.4271 38.311C39.6007 38.4846 39.974 38.5715 40.5469 38.5715C41.2934 38.5715 41.9618 38.3892 42.5521 38.0246C43.1424 37.66 43.572 37.1999 43.8411 36.6444C44.1102 36.0888 44.2144 35.4682 44.1536 34.7824C44.0929 34.0966 43.8281 33.4586 43.3594 32.8683ZM47.5 34.3787H50V21.0454H47.5781L43.4896 16.3579C42.3438 15.0385 40.8767 14.3787 39.0885 14.3787H34.7396C33.1944 14.3787 31.9271 14.9603 30.9375 16.1235L25.4948 22.4517C25.0087 23.0246 24.7656 23.6756 24.7656 24.4048C24.7656 25.134 25 25.785 25.4688 26.3579C26.2153 27.2433 27.1701 27.6947 28.3333 27.7121C29.4965 27.7294 30.4601 27.3041 31.224 26.436L36.25 20.759C36.684 20.3596 37.1484 20.173 37.6432 20.1991C38.138 20.2251 38.546 20.4595 38.8672 20.9022C39.1884 21.3449 39.2622 21.8353 39.0885 22.3735C39.3663 22.7034 39.8524 23.2503 40.5469 24.0142C41.2413 24.778 41.7622 25.3683 42.1094 25.785C42.6128 26.41 43.329 27.3258 44.2578 28.5324C45.1866 29.739 45.7465 30.4725 45.9375 30.7329C46.8403 31.8787 47.3611 33.094 47.5 34.3787ZM55 34.3787C55.6944 34.3787 56.1806 34.101 56.4583 33.5454C56.7361 32.9899 56.7361 32.4343 56.4583 31.8787C56.1806 31.3232 55.6944 31.0454 55 31.0454C54.3056 31.0454 53.8194 31.3232 53.5417 31.8787C53.2639 32.4343 53.2639 32.9899 53.5417 33.5454C53.8194 34.101 54.3056 34.3787 55 34.3787ZM60 19.3787V36.0454C60 36.4968 59.8351 36.8874 59.5052 37.2173C59.1753 37.5471 58.7847 37.7121 58.3333 37.7121H47.0312C46.5625 38.8405 45.8507 39.765 44.8958 40.4855C43.941 41.206 42.8559 41.6531 41.6406 41.8267C41.0677 42.66 40.3689 43.3675 39.5443 43.9491C38.7196 44.5307 37.8299 44.9256 36.875 45.134C36.1458 46.0541 35.2387 46.7616 34.1536 47.2563C33.0686 47.7511 31.9531 47.9638 30.8073 47.8944C29.7656 48.4846 28.6719 48.8275 27.526 48.923C26.3802 49.0185 25.2734 48.897 24.2057 48.5584C23.138 48.2199 22.1224 47.7555 21.1589 47.1652C20.1953 46.5749 19.2969 45.8718 18.4635 45.0558L10.9896 37.7121H1.66667C1.21528 37.7121 0.824653 37.5471 0.494792 37.2173C0.164931 36.8874 0 36.4968 0 36.0454V18.5454C0 18.094 0.164931 17.7034 0.494792 17.3735C0.824653 17.0437 1.21528 16.8787 1.66667 16.8787H12.6302C12.8733 16.6357 13.2812 16.219 13.8542 15.6287C14.4271 15.0385 14.8394 14.6218 15.0911 14.3787C15.3429 14.1357 15.7248 13.7885 16.237 13.3371C16.7491 12.8857 17.1875 12.5602 17.5521 12.3605C17.9167 12.1609 18.3594 11.9395 18.8802 11.6965C19.401 11.4534 19.9392 11.2841 20.4948 11.1886C21.0503 11.0932 21.6406 11.0454 22.2656 11.0454H25.3125C27.0312 11.0454 28.6024 11.5315 30.026 12.5037C31.4497 11.5315 33.0208 11.0454 34.7396 11.0454H39.0885C39.6962 11.0454 40.2778 11.0975 40.8333 11.2017C41.3889 11.3058 41.8793 11.4317 42.3047 11.5793C42.73 11.7268 43.1771 11.9569 43.6458 12.2694C44.1146 12.5819 44.5009 12.851 44.8047 13.0767C45.1085 13.3024 45.4818 13.6452 45.9245 14.1053C46.3672 14.5654 46.7057 14.93 46.9401 15.1991C47.1745 15.4682 47.5304 15.8848 48.0078 16.4491C48.4852 17.0133 48.8455 17.4343 49.0885 17.7121H58.3333C58.7847 17.7121 59.1753 17.877 59.5052 18.2069C59.8351 18.5367 60 18.9274 60 19.3787Z" fill="#F1F0F7"/>
</svg>
