<svg width="128" height="25" viewBox="0 0 128 25" fill="none" xmlns="http://www.w3.org/2000/svg">
<path d="M0.929688 1.84375H3.68359L6.92969 10.5039C7.14062 11.0742 7.31641 11.5742 7.45703 12.0039C7.60547 12.4336 7.73438 12.8359 7.84375 13.2109C8.11719 12.3047 8.40234 11.418 8.69922 10.5508C8.73828 10.4414 8.76562 10.3672 8.78125 10.3281L12.2266 1.16406L15.8594 10.5039C16.0312 10.957 16.1914 11.4102 16.3398 11.8633C16.4961 12.3164 16.6406 12.7734 16.7734 13.2344C16.8516 12.8828 16.957 12.4961 17.0898 12.0742C17.2227 11.6523 17.3945 11.1523 17.6055 10.5742L20.8281 1.84375H23.6055L16.9609 19.668L13.0469 9.88281C12.875 9.44531 12.7188 9.02734 12.5781 8.62891C12.4375 8.22266 12.3125 7.83984 12.2031 7.48047C12.0703 7.94141 11.9375 8.375 11.8047 8.78125C11.6719 9.17969 11.5352 9.5625 11.3945 9.92969L7.55078 19.668L0.929688 1.84375ZM25.082 3.08594C25.082 2.65625 25.2383 2.28516 25.5508 1.97266C25.8711 1.66016 26.25 1.50391 26.6875 1.50391C27.1406 1.50391 27.5156 1.65625 27.8125 1.96094C28.1172 2.25781 28.2695 2.63281 28.2695 3.08594C28.2695 3.53906 28.1172 3.92187 27.8125 4.23438C27.5078 4.53906 27.1328 4.69141 26.6875 4.69141C26.25 4.69141 25.8711 4.53516 25.5508 4.22266C25.2383 3.90234 25.082 3.52344 25.082 3.08594ZM25.4219 19V7.89062H27.9648V19H25.4219ZM30.332 16.9844L32.4414 15.8359C32.5977 16.3906 32.8867 16.8125 33.3086 17.1016C33.7305 17.3906 34.2734 17.5352 34.9375 17.5352C35.5078 17.5352 35.9531 17.4062 36.2734 17.1484C36.6016 16.8828 36.7656 16.5234 36.7656 16.0703C36.7656 15.4688 36.1875 14.9531 35.0312 14.5234C34.6406 14.3828 34.3398 14.2656 34.1289 14.1719C32.9414 13.6797 32.1094 13.1797 31.6328 12.6719C31.1641 12.1641 30.9297 11.5469 30.9297 10.8203C30.9297 9.82812 31.3164 9.02344 32.0898 8.40625C32.8711 7.78906 33.9023 7.48047 35.1836 7.48047C36.043 7.48047 36.7773 7.64062 37.3867 7.96094C38.0039 8.27344 38.4531 8.72266 38.7344 9.30859L36.9297 10.5508C36.7969 10.1992 36.5625 9.92188 36.2266 9.71875C35.8984 9.50781 35.5156 9.40234 35.0781 9.40234C34.5938 9.40234 34.2031 9.51953 33.9062 9.75391C33.6172 9.98047 33.4727 10.2852 33.4727 10.668C33.4727 11.2461 34.1289 11.7734 35.4414 12.25C35.8555 12.3984 36.1758 12.5195 36.4023 12.6133C37.4258 13.0195 38.1562 13.4805 38.5938 13.9961C39.0391 14.5039 39.2617 15.1406 39.2617 15.9062C39.2617 17.0156 38.8594 17.8867 38.0547 18.5195C37.25 19.1445 36.1406 19.457 34.7266 19.457C33.6406 19.457 32.7383 19.2539 32.0195 18.8477C31.3008 18.4414 30.7383 17.8203 30.332 16.9844ZM49.8086 13.4102C49.8086 12.2617 49.5391 11.3672 49 10.7266C48.4688 10.0859 47.7227 9.76562 46.7617 9.76562C45.8008 9.76562 45.043 10.0977 44.4883 10.7617C43.9414 11.418 43.668 12.332 43.668 13.5039C43.668 14.6836 43.9336 15.5938 44.4648 16.2344C44.9961 16.875 45.7461 17.1953 46.7148 17.1953C47.6367 17.1953 48.3828 16.8516 48.9531 16.1641C49.5234 15.4688 49.8086 14.5508 49.8086 13.4102ZM49.7383 0.835938H52.2812V19H49.7383V17.5586C49.2852 18.1992 48.7539 18.6758 48.1445 18.9883C47.543 19.3008 46.8516 19.457 46.0703 19.457C44.5 19.457 43.2617 18.9219 42.3555 17.8516C41.457 16.7734 41.0078 15.3008 41.0078 13.4336C41.0078 11.6602 41.4688 10.2305 42.3906 9.14453C43.3125 8.05078 44.5156 7.50391 46 7.50391C46.9062 7.50391 47.6797 7.69531 48.3203 8.07812C48.9688 8.45312 49.4414 8.99609 49.7383 9.70703V0.835938ZM64.5273 13.4805C64.5273 12.4492 64.1953 11.5781 63.5312 10.8672C62.8672 10.1484 62.0547 9.78906 61.0938 9.78906C60.1406 9.78906 59.3281 10.1484 58.6562 10.8672C57.9922 11.5781 57.6602 12.4492 57.6602 13.4805C57.6602 14.5117 57.9922 15.3867 58.6562 16.1055C59.3281 16.8164 60.1406 17.1719 61.0938 17.1719C62.0469 17.1719 62.8555 16.8164 63.5195 16.1055C64.1914 15.3867 64.5273 14.5117 64.5273 13.4805ZM54.9766 13.457C54.9766 12.6445 55.1289 11.8789 55.4336 11.1602C55.7461 10.4336 56.1914 9.78906 56.7695 9.22656C57.3398 8.67188 57.9961 8.24609 58.7383 7.94922C59.4805 7.65234 60.2578 7.50391 61.0703 7.50391C61.9062 7.50391 62.6914 7.65234 63.4258 7.94922C64.168 8.24609 64.832 8.68359 65.418 9.26172C66.0039 9.83203 66.4492 10.4766 66.7539 11.1953C67.0586 11.9141 67.2109 12.668 67.2109 13.457C67.2109 14.2773 67.0586 15.0469 66.7539 15.7656C66.457 16.4844 66.0195 17.1211 65.4414 17.6758C64.832 18.2617 64.1562 18.7031 63.4141 19C62.6719 19.3047 61.8906 19.457 61.0703 19.457C60.2656 19.457 59.4922 19.3047 58.75 19C58.0078 18.7031 57.3477 18.2695 56.7695 17.6992C56.1836 17.1211 55.7383 16.4727 55.4336 15.7539C55.1289 15.0352 54.9766 14.2695 54.9766 13.457ZM78.2031 11.0547C77.8125 10.625 77.3555 10.2969 76.832 10.0703C76.3164 9.84375 75.7578 9.73047 75.1562 9.73047C74.1172 9.73047 73.2852 10.0664 72.6602 10.7383C72.0352 11.4102 71.7227 12.3008 71.7227 13.4102C71.7227 14.5664 72.0352 15.4766 72.6602 16.1406C73.293 16.7969 74.1641 17.125 75.2734 17.125C75.8906 17.125 76.4414 17.0117 76.9258 16.7852C77.4102 16.5508 77.8359 16.1992 78.2031 15.7305V18.6602C77.7344 18.9258 77.2305 19.125 76.6914 19.2578C76.1602 19.3906 75.5938 19.457 74.9922 19.457C73.25 19.457 71.8281 18.9023 70.7266 17.793C69.6328 16.6836 69.0859 15.2461 69.0859 13.4805C69.0859 11.6914 69.6523 10.25 70.7852 9.15625C71.9258 8.05469 73.4141 7.50391 75.25 7.50391C75.8281 7.50391 76.3594 7.5625 76.8438 7.67969C77.3281 7.78906 77.7812 7.96094 78.2031 8.19531V11.0547ZM80.582 3.08594C80.582 2.65625 80.7383 2.28516 81.0508 1.97266C81.3711 1.66016 81.75 1.50391 82.1875 1.50391C82.6406 1.50391 83.0156 1.65625 83.3125 1.96094C83.6172 2.25781 83.7695 2.63281 83.7695 3.08594C83.7695 3.53906 83.6172 3.92187 83.3125 4.23438C83.0078 4.53906 82.6328 4.69141 82.1875 4.69141C81.75 4.69141 81.3711 4.53516 81.0508 4.22266C80.7383 3.90234 80.582 3.52344 80.582 3.08594ZM80.9219 19V7.89062H83.4648V19H80.9219ZM87.707 19V10.1172H85.7617V7.89062H87.707V3.68359H90.25V7.89062H92.1953V10.1172H90.25V19H87.707ZM96.3086 24.2266H93.6953L96.7422 18.0391L92.6641 7.89062H95.4766L97.5156 13.6445C97.6328 13.9961 97.7344 14.3555 97.8203 14.7227C97.9141 15.082 97.9883 15.4492 98.043 15.8242C98.1445 15.4336 98.3867 14.8125 98.7695 13.9609L98.8281 13.8203L101.57 7.89062H104.324L96.3086 24.2266ZM103.961 17.6992C103.961 17.2695 104.109 16.9023 104.406 16.5977C104.703 16.293 105.066 16.1406 105.496 16.1406C105.926 16.1406 106.289 16.293 106.586 16.5977C106.883 16.9023 107.031 17.2695 107.031 17.6992C107.031 18.1211 106.883 18.4805 106.586 18.7773C106.289 19.0664 105.926 19.2109 105.496 19.2109C105.066 19.2109 104.703 19.0664 104.406 18.7773C104.109 18.4805 103.961 18.1211 103.961 17.6992ZM121.328 19H118.785V17.5586C118.332 18.1992 117.801 18.6758 117.191 18.9883C116.59 19.3008 115.898 19.457 115.117 19.457C113.547 19.457 112.309 18.9219 111.402 17.8516C110.504 16.7734 110.055 15.3008 110.055 13.4336C110.055 11.6602 110.516 10.2305 111.438 9.14453C112.359 8.05078 113.562 7.50391 115.047 7.50391C115.953 7.50391 116.727 7.69531 117.367 8.07812C118.016 8.45312 118.488 8.99609 118.785 9.70703V7.89062H121.328V19ZM118.855 13.4102C118.855 12.2617 118.586 11.3672 118.047 10.7266C117.516 10.0859 116.77 9.76562 115.809 9.76562C114.848 9.76562 114.09 10.0977 113.535 10.7617C112.988 11.418 112.715 12.332 112.715 13.5039C112.715 14.6836 112.98 15.5938 113.512 16.2344C114.043 16.875 114.793 17.1953 115.762 17.1953C116.676 17.1953 117.418 16.8477 117.988 16.1523C118.566 15.457 118.855 14.543 118.855 13.4102ZM124.621 3.08594C124.621 2.65625 124.777 2.28516 125.09 1.97266C125.41 1.66016 125.789 1.50391 126.227 1.50391C126.68 1.50391 127.055 1.65625 127.352 1.96094C127.656 2.25781 127.809 2.63281 127.809 3.08594C127.809 3.53906 127.656 3.92187 127.352 4.23438C127.047 4.53906 126.672 4.69141 126.227 4.69141C125.789 4.69141 125.41 4.53516 125.09 4.22266C124.777 3.90234 124.621 3.52344 124.621 3.08594ZM124.961 19V7.89062H127.504V19H124.961Z" fill="white"/>
</svg>
