<svg width="36" height="66" viewBox="0 0 36 66" fill="none" xmlns="http://www.w3.org/2000/svg">
<path d="M14 28C14 28.8284 13.3284 29.5 12.5 29.5C11.6716 29.5 11 28.8284 11 28L11 2.00001C11 1.17159 11.6716 0.500015 12.5 0.500015C13.3284 0.500015 14 1.17159 14 2.00002L14 28Z" fill="#D586FD"/>
<path fill-rule="evenodd" clip-rule="evenodd" d="M11.5 2.00002L11.5 28C11.5 28.5523 11.9477 29 12.5 29C13.0523 29 13.5 28.5523 13.5 28L13.5 2.00002C13.5 1.44773 13.0523 1.00002 12.5 1.00002C11.9477 1.00002 11.5 1.44773 11.5 2.00002ZM12.5 29.5C13.3284 29.5 14 28.8284 14 28L14 2.00002C14 1.17159 13.3284 0.500015 12.5 0.500015C11.6716 0.500015 11 1.17159 11 2.00001L11 28C11 28.8284 11.6716 29.5 12.5 29.5Z" fill="#D586FD"/>
<path d="M25 28C25 28.8284 24.3284 29.5 23.5 29.5C22.6716 29.5 22 28.8284 22 28L22 1.99998C22 1.17156 22.6716 0.499985 23.5 0.499985C24.3284 0.499985 25 1.17156 25 1.99998L25 28Z" fill="#D586FD"/>
<path fill-rule="evenodd" clip-rule="evenodd" d="M22.5 1.99998L22.5 28C22.5 28.5523 22.9477 29 23.5 29C24.0523 29 24.5 28.5523 24.5 28L24.5 1.99998C24.5 1.4477 24.0523 0.999985 23.5 0.999985C22.9477 0.999985 22.5 1.4477 22.5 1.99998ZM23.5 29.5C24.3284 29.5 25 28.8284 25 28L25 1.99998C25 1.17156 24.3284 0.499985 23.5 0.499985C22.6716 0.499985 22 1.17156 22 1.99998L22 28C22 28.8284 22.6716 29.5 23.5 29.5Z" fill="#D586FD"/>
<path fill-rule="evenodd" clip-rule="evenodd" d="M17.5634 12.504C21.5873 12.4306 25.595 13.3741 28.8811 15.2642C32.1587 17.1495 34.6852 19.9732 35.6192 23.4254C36.5726 26.9493 35.6962 30.5166 33.4319 33.4048C31.2252 36.2195 27.7224 38.4251 23.8867 39.4489C23.0863 39.6625 22.2643 39.1869 22.0507 38.3865C21.837 37.5861 22.3127 36.764 23.1131 36.5504C26.4019 35.6726 29.315 33.7937 31.0711 31.5538C32.8131 29.3318 33.4048 26.7273 32.7234 24.2089C32.0439 21.6974 30.1473 19.4533 27.3853 17.8647C24.6219 16.2752 21.1612 15.4388 17.6182 15.5034C14.0752 15.5681 10.6785 16.5296 8.03146 18.218C5.38568 19.9057 3.64969 22.2175 3.14945 24.753C2.64809 27.2942 3.42482 29.8718 5.32081 32.025C7.28237 34.2528 9.55612 35.7962 12.8309 36.5366C13.6389 36.7193 14.1458 37.5224 13.9632 38.3304C13.7805 39.1385 12.9774 39.6454 12.1694 39.4627C8.20417 38.5662 5.39497 36.6488 3.06929 34.0076C0.640451 31.2491 -0.498937 27.7466 0.206248 24.1723C0.900026 20.6559 3.25017 17.7095 6.41819 15.6888C9.58971 13.6658 13.5409 12.5774 17.5634 12.504Z" fill="#8726B9"/>
<path fill-rule="evenodd" clip-rule="evenodd" d="M18.4365 53.4961C14.4131 53.5687 10.4057 52.6352 7.11974 50.7652C3.84232 48.9001 1.31527 46.106 0.380944 42.6892C-0.572901 39.2011 0.304056 35.6704 2.56871 32.8123C4.73271 30.0813 8.20901 27.5814 12.1128 26.5505C12.9133 26.3391 13.7352 26.8107 13.9485 27.6038C14.1619 28.397 13.6859 29.2113 12.8854 29.4227C9.66475 30.2732 6.72712 32.3777 4.9283 34.6479C3.1866 36.846 2.59552 39.4217 3.27648 41.9119C3.95565 44.3956 5.85166 46.6157 8.61386 48.1877C11.3775 49.7604 14.8384 50.5881 18.3819 50.5241C21.9253 50.4601 25.3222 49.5087 27.9694 47.8381C30.6153 46.1682 32.3506 43.8811 32.8506 41.3738C33.3517 38.8611 32.5756 36.3119 30.6799 34.1817C28.6613 31.9135 26.3767 30.154 23.1686 29.4363C22.3605 29.2556 21.8533 28.46 22.0358 27.6593C22.2182 26.8586 23.0212 26.3561 23.8292 26.5369C27.861 27.4387 30.6613 29.6665 32.93 32.2158C35.3591 34.9454 36.4992 38.4119 35.7937 41.9499C35.0996 45.4304 32.7488 48.3459 29.581 50.3451C26.4096 52.3466 22.4587 53.4234 18.4365 53.4961Z" fill="#D586FD"/>
<path d="M22 38C22 37.1716 22.6716 36.5 23.5 36.5C24.3284 36.5 25 37.1716 25 38L25 64C25 64.8284 24.3284 65.5 23.5 65.5C22.6716 65.5 22 64.8284 22 64L22 38Z" fill="#8726B9"/>
<path d="M11 38C11 37.1716 11.6716 36.5 12.5 36.5C13.3284 36.5 14 37.1716 14 38L14 64C14 64.8284 13.3284 65.5 12.5 65.5C11.6716 65.5 11 64.8284 11 64L11 38Z" fill="#8726B9"/>
</svg>
