<svg width="242" height="70" viewBox="0 0 242 70" fill="none" xmlns="http://www.w3.org/2000/svg">
<path fill-rule="evenodd" clip-rule="evenodd" d="M60.3484 59.1343C53.9732 65.8281 44.9738 70 35 70C15.67 70 0 54.33 0 35C0 15.67 15.67 0 35 0C45.0802 0 54.1652 4.26138 60.5516 11.0809C67.4808 15.7472 76.635 15.7103 83.5248 10.9996C89.9072 4.2275 98.9599 0 109 0H207C226.33 0 242 15.67 242 35C242 54.33 226.33 70 207 70H109C99.0222 70 90.0195 65.8248 83.6438 59.1261C76.6537 54.3368 67.3481 54.3307 60.3484 59.1343Z" fill="#F1F0F7"/>
</svg>
